<svg xmlns="http://www.w3.org/2000/svg" xmlns:xlink="http://www.w3.org/1999/xlink" width="1920" zoomAndPan="magnify" viewBox="0 0 1440 809.999993" height="1080" preserveAspectRatio="xMidYMid meet" version="1.0"><defs><g/><clipPath id="4f3ec7d7b5"><rect x="0" width="1440" y="0" height="810"/></clipPath><clipPath id="1b944a940a"><path d="M 801 207.175781 L 1014.636719 207.175781 L 1014.636719 426 L 801 426 Z M 801 207.175781 " clip-rule="nonzero"/></clipPath><clipPath id="1278e87da3"><path d="M 425.136719 369 L 693 369 L 693 466 L 425.136719 466 Z M 425.136719 369 " clip-rule="nonzero"/></clipPath><clipPath id="80ad873243"><rect x="0" width="551" y="0" height="60"/></clipPath></defs><rect x="-144" width="1728" fill="#ffffff" y="-80.999999" height="971.999992" fill-opacity="1"/><rect x="-144" width="1728" fill="#ffffff" y="-80.999999" height="971.999992" fill-opacity="1"/><g transform="matrix(1, 0, 0, 1, 0, 0.000000000000039746)"><g clip-path="url(#4f3ec7d7b5)"><path fill="#e6e6e6" d="M 0 0 L 1439.648438 0 L 1439.648438 810 L 0 810 Z M 0 0 " fill-opacity="1" fill-rule="nonzero"/></g></g><path stroke-linecap="butt" transform="matrix(0.75, 0, 0, 0.75, 0.0000233884, 0.00002)" fill="none" stroke-linejoin="miter" d="M -0.0000311845 -0.0000266667 L 1920.000065 -0.0000266667 L 1920.000065 1080.000028 L -0.0000311845 1080.000028 Z M -0.0000311845 -0.0000266667 " stroke="#333f63" stroke-width="50" stroke-opacity="1" stroke-miterlimit="4"/><g clip-path="url(#1b944a940a)"><path fill="#333f63" d="M 910.164062 207.710938 C 908.382812 207.710938 906.605469 207.753906 904.828125 207.84375 C 903.050781 207.929688 901.277344 208.058594 899.503906 208.234375 C 897.734375 208.410156 895.96875 208.625 894.207031 208.886719 C 892.449219 209.148438 890.695312 209.453125 888.949219 209.800781 C 887.203125 210.148438 885.46875 210.539062 883.742188 210.96875 C 882.015625 211.402344 880.300781 211.875 878.597656 212.394531 C 876.894531 212.910156 875.207031 213.46875 873.53125 214.066406 C 871.855469 214.667969 870.195312 215.308594 868.550781 215.988281 C 866.90625 216.667969 865.28125 217.390625 863.671875 218.152344 C 862.0625 218.914062 860.472656 219.710938 858.902344 220.550781 C 857.332031 221.390625 855.785156 222.265625 854.257812 223.183594 C 852.734375 224.097656 851.230469 225.046875 849.75 226.039062 C 848.269531 227.027344 846.816406 228.050781 845.386719 229.109375 C 843.957031 230.171875 842.554688 231.265625 841.179688 232.394531 C 839.804688 233.523438 838.457031 234.683594 837.136719 235.878906 C 835.820312 237.074219 834.53125 238.300781 833.273438 239.5625 C 832.011719 240.820312 830.785156 242.109375 829.589844 243.425781 C 828.394531 244.746094 827.234375 246.09375 826.105469 247.46875 C 824.976562 248.84375 823.882812 250.246094 822.820312 251.675781 C 821.761719 253.105469 820.738281 254.558594 819.75 256.039062 C 818.757812 257.519531 817.808594 259.023438 816.894531 260.546875 C 815.976562 262.074219 815.101562 263.621094 814.261719 265.191406 C 813.421875 266.761719 812.625 268.351562 811.863281 269.960938 C 811.101562 271.570312 810.378906 273.195312 809.699219 274.839844 C 809.019531 276.484375 808.378906 278.144531 807.777344 279.820312 C 807.179688 281.496094 806.621094 283.183594 806.105469 284.886719 C 805.589844 286.589844 805.113281 288.304688 804.679688 290.03125 C 804.25 291.757812 803.859375 293.492188 803.511719 295.238281 C 803.164062 296.984375 802.859375 298.738281 802.597656 300.496094 C 802.339844 302.257812 802.121094 304.023438 801.945312 305.792969 C 801.769531 307.566406 801.640625 309.339844 801.554688 311.117188 C 801.464844 312.894531 801.421875 314.671875 801.421875 316.453125 C 801.421875 318.234375 801.464844 320.011719 801.554688 321.789062 C 801.640625 323.566406 801.769531 325.339844 801.945312 327.113281 C 802.121094 328.882812 802.339844 330.648438 802.597656 332.410156 C 802.859375 334.167969 803.164062 335.921875 803.511719 337.667969 C 803.859375 339.414062 804.25 341.148438 804.679688 342.875 C 805.113281 344.601562 805.589844 346.316406 806.105469 348.019531 C 806.621094 349.722656 807.179688 351.410156 807.777344 353.085938 C 808.378906 354.761719 809.019531 356.421875 809.699219 358.066406 C 810.378906 359.710938 811.101562 361.335938 811.863281 362.945312 C 812.625 364.554688 813.421875 366.144531 814.261719 367.714844 C 815.101562 369.285156 815.976562 370.832031 816.894531 372.359375 C 817.808594 373.882812 818.761719 375.386719 819.75 376.867188 C 820.738281 378.347656 821.761719 379.800781 822.820312 381.230469 C 823.882812 382.660156 824.976562 384.0625 826.105469 385.4375 C 827.234375 386.8125 828.394531 388.160156 829.589844 389.480469 C 830.785156 390.796875 832.011719 392.085938 833.273438 393.34375 C 834.53125 394.601562 835.820312 395.832031 837.136719 397.023438 C 838.457031 398.21875 839.804688 399.382812 841.179688 400.511719 C 842.554688 401.640625 843.957031 402.734375 845.386719 403.796875 C 846.816406 404.855469 848.269531 405.878906 849.75 406.867188 C 851.230469 407.855469 852.734375 408.808594 854.257812 409.722656 C 855.785156 410.640625 857.332031 411.515625 858.902344 412.355469 C 860.472656 413.195312 862.0625 413.992188 863.671875 414.753906 C 865.28125 415.515625 866.90625 416.234375 868.550781 416.917969 C 870.195312 417.597656 871.855469 418.238281 873.53125 418.839844 C 875.207031 419.4375 876.894531 419.996094 878.597656 420.511719 C 880.300781 421.027344 882.015625 421.503906 883.742188 421.9375 C 885.46875 422.367188 887.203125 422.757812 888.949219 423.105469 C 890.695312 423.453125 892.449219 423.757812 894.207031 424.019531 C 895.96875 424.277344 897.734375 424.496094 899.503906 424.671875 C 901.277344 424.84375 903.050781 424.976562 904.828125 425.0625 C 906.605469 425.152344 908.382812 425.195312 910.164062 425.195312 C 913.121094 425.191406 916.074219 425.070312 919.019531 424.828125 C 921.96875 424.582031 924.898438 424.222656 927.816406 423.738281 C 930.734375 423.257812 933.628906 422.65625 936.496094 421.9375 C 939.363281 421.21875 942.199219 420.386719 945 419.4375 C 947.800781 418.488281 950.558594 417.425781 953.269531 416.25 C 955.984375 415.078125 958.648438 413.792969 961.257812 412.402344 C 963.867188 411.011719 966.414062 409.515625 968.902344 407.914062 C 971.386719 406.316406 973.804688 404.617188 976.15625 402.820312 C 978.503906 401.023438 980.773438 399.136719 982.96875 397.152344 C 985.164062 395.171875 987.273438 393.101562 989.300781 390.949219 C 991.324219 388.792969 993.261719 386.5625 995.105469 384.25 C 996.949219 381.9375 998.695312 379.554688 1000.34375 377.101562 C 1001.992188 374.644531 1003.539062 372.128906 1004.984375 369.546875 C 1006.425781 366.964844 1007.761719 364.332031 1008.992188 361.640625 C 1010.222656 358.953125 1011.339844 356.214844 1012.34375 353.433594 C 1013.351562 350.65625 1014.242188 347.835938 1015.015625 344.984375 C 1011.324219 345.472656 1007.617188 345.726562 1003.890625 345.742188 C 1002.453125 345.742188 1001.015625 345.707031 999.582031 345.636719 C 998.144531 345.566406 996.710938 345.460938 995.277344 345.320312 C 993.847656 345.179688 992.421875 345.003906 991 344.792969 C 989.578125 344.582031 988.160156 344.335938 986.75 344.054688 C 985.339844 343.773438 983.9375 343.460938 982.542969 343.109375 C 981.144531 342.761719 979.761719 342.378906 978.382812 341.960938 C 977.007812 341.542969 975.644531 341.089844 974.289062 340.605469 C 972.933594 340.121094 971.59375 339.605469 970.265625 339.054688 C 968.9375 338.503906 967.621094 337.921875 966.324219 337.308594 C 965.023438 336.691406 963.738281 336.046875 962.46875 335.367188 C 961.203125 334.691406 959.949219 333.980469 958.71875 333.242188 C 957.484375 332.503906 956.269531 331.734375 955.074219 330.933594 C 953.878906 330.136719 952.703125 329.308594 951.546875 328.453125 C 950.390625 327.59375 949.257812 326.710938 948.148438 325.796875 C 947.035156 324.886719 945.945312 323.945312 944.882812 322.980469 C 943.816406 322.015625 942.773438 321.023438 941.757812 320.007812 C 940.742188 318.988281 939.75 317.949219 938.785156 316.882812 C 937.816406 315.816406 936.878906 314.730469 935.96875 313.617188 C 935.054688 312.503906 934.171875 311.371094 933.3125 310.21875 C 932.457031 309.0625 931.628906 307.886719 930.832031 306.691406 C 930.03125 305.496094 929.261719 304.28125 928.523438 303.046875 C 927.785156 301.8125 927.074219 300.5625 926.398438 299.292969 C 925.71875 298.027344 925.074219 296.742188 924.457031 295.441406 C 923.84375 294.140625 923.261719 292.828125 922.710938 291.5 C 922.160156 290.171875 921.640625 288.828125 921.15625 287.476562 C 920.671875 286.121094 920.222656 284.757812 919.804688 283.378906 C 919.386719 282.003906 919.003906 280.617188 918.65625 279.222656 C 918.304688 277.828125 917.988281 276.425781 917.710938 275.015625 C 917.429688 273.605469 917.183594 272.1875 916.972656 270.765625 C 916.761719 269.34375 916.585938 267.917969 916.445312 266.484375 C 916.304688 265.054688 916.199219 263.621094 916.128906 262.183594 C 916.054688 260.75 916.019531 259.3125 916.019531 257.871094 C 916.023438 253.609375 916.335938 249.367188 916.957031 245.148438 C 917.578125 240.929688 918.503906 236.78125 919.730469 232.695312 C 920.953125 228.613281 922.46875 224.636719 924.273438 220.773438 C 926.078125 216.910156 928.152344 213.199219 930.496094 209.636719 C 923.777344 208.355469 917 207.714844 910.164062 207.710938 Z M 910.164062 207.710938 " fill-opacity="1" fill-rule="nonzero"/></g><path fill="#c6e0f7" d="M 672.800781 300.332031 C 671.128906 300.332031 669.457031 300.375 667.789062 300.457031 C 666.117188 300.539062 664.449219 300.660156 662.785156 300.824219 C 661.121094 300.988281 659.464844 301.191406 657.808594 301.4375 C 656.15625 301.683594 654.507812 301.96875 652.867188 302.296875 C 651.230469 302.621094 649.597656 302.988281 647.976562 303.394531 C 646.355469 303.800781 644.742188 304.246094 643.144531 304.734375 C 641.542969 305.21875 639.957031 305.742188 638.382812 306.304688 C 636.808594 306.867188 635.25 307.46875 633.703125 308.109375 C 632.160156 308.75 630.628906 309.425781 629.117188 310.140625 C 627.609375 310.855469 626.113281 311.609375 624.640625 312.398438 C 623.164062 313.183594 621.710938 314.007812 620.277344 314.867188 C 618.84375 315.726562 617.429688 316.621094 616.039062 317.550781 C 614.648438 318.480469 613.285156 319.441406 611.941406 320.4375 C 610.597656 321.433594 609.28125 322.464844 607.988281 323.523438 C 606.695312 324.585938 605.429688 325.675781 604.191406 326.800781 C 602.953125 327.921875 601.742188 329.074219 600.558594 330.257812 C 599.375 331.441406 598.222656 332.648438 597.101562 333.890625 C 595.976562 335.128906 594.886719 336.394531 593.824219 337.6875 C 592.765625 338.980469 591.734375 340.296875 590.738281 341.640625 C 589.742188 342.980469 588.78125 344.347656 587.851562 345.738281 C 586.925781 347.128906 586.03125 348.542969 585.171875 349.976562 C 584.308594 351.410156 583.488281 352.863281 582.699219 354.339844 C 581.910156 355.8125 581.160156 357.304688 580.445312 358.816406 C 579.730469 360.328125 579.050781 361.855469 578.410156 363.402344 C 577.773438 364.945312 577.171875 366.507812 576.605469 368.082031 C 576.042969 369.65625 575.519531 371.242188 575.035156 372.84375 C 574.546875 374.441406 574.101562 376.054688 573.695312 377.675781 C 573.289062 379.296875 572.925781 380.925781 572.597656 382.566406 C 572.273438 384.207031 571.984375 385.855469 571.742188 387.507812 C 571.496094 389.160156 571.289062 390.820312 571.125 392.484375 C 570.964844 394.148438 570.839844 395.816406 570.757812 397.484375 C 570.675781 399.15625 570.636719 400.828125 570.636719 402.5 C 570.65625 406.28125 570.890625 410.050781 571.332031 413.808594 C 532.800781 420.726562 503.890625 451.847656 503.890625 489.421875 C 503.890625 532.109375 541.203125 566.476562 587.550781 566.476562 L 886.066406 566.476562 C 928.753906 566.476562 963.121094 534.53125 963.121094 494.851562 C 963.121094 455.421875 929.175781 423.648438 886.859375 423.25 C 886.523438 420.605469 886.070312 417.984375 885.5 415.382812 C 884.925781 412.777344 884.238281 410.207031 883.433594 407.667969 C 882.628906 405.125 881.714844 402.628906 880.683594 400.167969 C 879.652344 397.710938 878.515625 395.304688 877.265625 392.953125 C 876.019531 390.597656 874.667969 388.304688 873.210938 386.070312 C 871.757812 383.839844 870.207031 381.675781 868.554688 379.582031 C 866.90625 377.492188 865.164062 375.476562 863.332031 373.542969 C 861.5 371.609375 859.582031 369.757812 857.585938 367.996094 C 855.585938 366.234375 853.511719 364.566406 851.359375 362.992188 C 849.210938 361.417969 846.996094 359.945312 844.710938 358.570312 C 842.429688 357.195312 840.085938 355.925781 837.691406 354.765625 C 835.292969 353.601562 832.847656 352.550781 830.355469 351.609375 C 827.863281 350.667969 825.332031 349.839844 822.765625 349.125 C 820.195312 348.414062 817.601562 347.816406 814.980469 347.339844 C 812.359375 346.859375 809.722656 346.5 807.066406 346.257812 C 804.414062 346.019531 801.753906 345.898438 799.089844 345.898438 C 792.800781 345.910156 786.582031 346.582031 780.433594 347.917969 C 774.285156 349.253906 768.347656 351.222656 762.621094 353.824219 C 761.53125 351.8125 760.375 349.839844 759.15625 347.90625 C 757.933594 345.972656 756.648438 344.085938 755.296875 342.238281 C 753.949219 340.390625 752.539062 338.589844 751.070312 336.839844 C 749.597656 335.085938 748.070312 333.386719 746.488281 331.734375 C 744.902344 330.085938 743.265625 328.492188 741.574219 326.953125 C 739.882812 325.410156 738.140625 323.929688 736.351562 322.507812 C 734.5625 321.085938 732.722656 319.722656 730.84375 318.425781 C 728.960938 317.125 727.035156 315.890625 725.070312 314.71875 C 723.105469 313.550781 721.105469 312.445312 719.066406 311.410156 C 717.027344 310.375 714.953125 309.410156 712.851562 308.511719 C 710.746094 307.613281 708.613281 306.789062 706.453125 306.035156 C 704.296875 305.28125 702.113281 304.601562 699.90625 303.996094 C 697.703125 303.386719 695.480469 302.855469 693.238281 302.398438 C 690.996094 301.941406 688.742188 301.558594 686.476562 301.253906 C 684.210938 300.945312 681.9375 300.714844 679.65625 300.5625 C 677.371094 300.410156 675.089844 300.332031 672.800781 300.332031 Z M 672.800781 300.332031 " fill-opacity="1" fill-rule="nonzero"/><g clip-path="url(#1278e87da3)"><path fill="#393939" d="M 644.582031 369.558594 C 617.980469 369.558594 596.175781 391.132812 596.175781 417.617188 C 596.175781 418.144531 596.226562 418.664062 596.332031 419.179688 C 596.433594 419.695312 596.585938 420.195312 596.785156 420.683594 C 596.988281 421.167969 597.234375 421.628906 597.527344 422.066406 C 597.820312 422.503906 598.152344 422.910156 598.523438 423.28125 C 598.894531 423.652344 599.300781 423.984375 599.734375 424.277344 C 600.171875 424.570312 600.636719 424.816406 601.121094 425.015625 C 601.605469 425.21875 602.109375 425.371094 602.625 425.472656 C 603.140625 425.574219 603.660156 425.628906 604.1875 425.628906 C 604.710938 425.628906 605.234375 425.574219 605.75 425.472656 C 606.265625 425.371094 606.765625 425.21875 607.25 425.015625 C 607.738281 424.816406 608.199219 424.570312 608.636719 424.277344 C 609.074219 423.984375 609.476562 423.652344 609.851562 423.28125 C 610.222656 422.910156 610.554688 422.503906 610.847656 422.066406 C 611.136719 421.628906 611.386719 421.167969 611.585938 420.683594 C 611.789062 420.195312 611.941406 419.695312 612.042969 419.179688 C 612.144531 418.664062 612.195312 418.144531 612.195312 417.617188 C 612.195312 399.867188 626.5625 385.578125 644.582031 385.578125 C 662.601562 385.578125 676.96875 399.867188 676.96875 417.617188 C 676.96875 435.371094 662.601562 449.65625 644.582031 449.65625 L 433.347656 449.65625 C 432.820312 449.65625 432.300781 449.707031 431.785156 449.808594 C 431.269531 449.914062 430.769531 450.066406 430.28125 450.265625 C 429.796875 450.46875 429.335938 450.714844 428.898438 451.007812 C 428.460938 451.296875 428.054688 451.628906 427.683594 452.003906 C 427.3125 452.375 426.980469 452.777344 426.6875 453.214844 C 426.394531 453.652344 426.148438 454.117188 425.949219 454.601562 C 425.746094 455.085938 425.59375 455.589844 425.492188 456.105469 C 425.390625 456.621094 425.335938 457.140625 425.335938 457.667969 C 425.335938 458.191406 425.390625 458.714844 425.492188 459.230469 C 425.59375 459.746094 425.746094 460.246094 425.949219 460.730469 C 426.148438 461.21875 426.394531 461.679688 426.6875 462.117188 C 426.980469 462.554688 427.3125 462.957031 427.683594 463.332031 C 428.054688 463.703125 428.460938 464.035156 428.898438 464.328125 C 429.335938 464.617188 429.796875 464.867188 430.28125 465.066406 C 430.769531 465.269531 431.269531 465.417969 431.785156 465.523438 C 432.300781 465.625 432.820312 465.675781 433.347656 465.675781 L 644.582031 465.675781 C 671.183594 465.675781 692.988281 444.101562 692.988281 417.617188 C 692.988281 391.132812 671.183594 369.558594 644.582031 369.558594 Z M 644.582031 369.558594 " fill-opacity="1" fill-rule="nonzero"/></g><path fill="#393939" d="M 742.890625 416.546875 C 720.21875 416.546875 701.304688 434.363281 701.304688 456.59375 C 701.304688 457.121094 701.355469 457.640625 701.457031 458.15625 C 701.5625 458.671875 701.714844 459.171875 701.914062 459.660156 C 702.117188 460.144531 702.363281 460.605469 702.65625 461.042969 C 702.945312 461.480469 703.277344 461.886719 703.652344 462.257812 C 704.023438 462.628906 704.425781 462.960938 704.863281 463.253906 C 705.300781 463.546875 705.765625 463.792969 706.25 463.996094 C 706.734375 464.195312 707.238281 464.347656 707.753906 464.449219 C 708.269531 464.554688 708.789062 464.605469 709.316406 464.605469 C 709.839844 464.605469 710.363281 464.554688 710.878906 464.449219 C 711.394531 464.347656 711.894531 464.195312 712.378906 463.996094 C 712.867188 463.792969 713.328125 463.546875 713.765625 463.253906 C 714.203125 462.960938 714.605469 462.628906 714.980469 462.257812 C 715.351562 461.886719 715.683594 461.480469 715.976562 461.042969 C 716.265625 460.605469 716.511719 460.144531 716.714844 459.660156 C 716.917969 459.171875 717.066406 458.671875 717.171875 458.15625 C 717.273438 457.640625 717.324219 457.121094 717.324219 456.59375 C 717.324219 443.4375 728.480469 432.566406 742.890625 432.566406 C 757.304688 432.566406 768.457031 443.4375 768.457031 456.59375 C 768.457031 469.753906 757.304688 480.625 742.890625 480.625 L 476.070312 480.625 C 475.542969 480.625 475.023438 480.675781 474.507812 480.777344 C 473.992188 480.878906 473.488281 481.03125 473.003906 481.234375 C 472.519531 481.433594 472.054688 481.679688 471.617188 481.972656 C 471.183594 482.265625 470.777344 482.597656 470.40625 482.96875 C 470.035156 483.339844 469.703125 483.746094 469.410156 484.183594 C 469.117188 484.621094 468.871094 485.082031 468.667969 485.566406 C 468.46875 486.054688 468.316406 486.554688 468.214844 487.070312 C 468.109375 487.585938 468.058594 488.109375 468.058594 488.632812 C 468.058594 489.160156 468.109375 489.679688 468.214844 490.195312 C 468.316406 490.710938 468.46875 491.210938 468.667969 491.699219 C 468.871094 492.183594 469.117188 492.644531 469.410156 493.082031 C 469.703125 493.519531 470.035156 493.925781 470.40625 494.296875 C 470.777344 494.667969 471.183594 495 471.617188 495.292969 C 472.054688 495.585938 472.519531 495.832031 473.003906 496.035156 C 473.488281 496.234375 473.992188 496.386719 474.507812 496.488281 C 475.023438 496.59375 475.542969 496.644531 476.070312 496.644531 L 742.890625 496.644531 C 765.566406 496.644531 784.476562 478.824219 784.476562 456.59375 C 784.476562 434.363281 765.566406 416.546875 742.890625 416.546875 Z M 742.890625 416.546875 " fill-opacity="1" fill-rule="nonzero"/><path fill="#393939" d="M 456.839844 511.597656 C 456.316406 511.597656 455.792969 511.648438 455.277344 511.753906 C 454.761719 511.855469 454.261719 512.007812 453.777344 512.207031 C 453.289062 512.410156 452.828125 512.65625 452.390625 512.949219 C 451.953125 513.242188 451.550781 513.574219 451.175781 513.945312 C 450.804688 514.316406 450.472656 514.722656 450.179688 515.160156 C 449.890625 515.59375 449.640625 516.058594 449.441406 516.542969 C 449.238281 517.027344 449.085938 517.53125 448.984375 518.046875 C 448.882812 518.5625 448.832031 519.082031 448.832031 519.609375 C 448.832031 520.132812 448.882812 520.65625 448.984375 521.171875 C 449.085938 521.6875 449.238281 522.1875 449.441406 522.671875 C 449.640625 523.160156 449.886719 523.621094 450.179688 524.058594 C 450.472656 524.496094 450.804688 524.898438 451.175781 525.273438 C 451.550781 525.644531 451.953125 525.976562 452.390625 526.269531 C 452.828125 526.558594 453.289062 526.808594 453.777344 527.007812 C 454.261719 527.210938 454.761719 527.363281 455.277344 527.464844 C 455.792969 527.566406 456.316406 527.617188 456.839844 527.617188 L 679.175781 527.617188 C 696.054688 527.617188 709.417969 540.816406 709.417969 557.125 C 709.417969 573.4375 696.054688 586.644531 679.175781 586.644531 C 662.296875 586.644531 648.933594 573.4375 648.933594 557.125 C 648.933594 556.601562 648.882812 556.078125 648.78125 555.5625 C 648.675781 555.046875 648.527344 554.546875 648.324219 554.0625 C 648.121094 553.574219 647.875 553.113281 647.582031 552.675781 C 647.292969 552.238281 646.960938 551.835938 646.585938 551.460938 C 646.214844 551.089844 645.8125 550.757812 645.375 550.464844 C 644.9375 550.175781 644.476562 549.929688 643.988281 549.726562 C 643.503906 549.523438 643.003906 549.375 642.488281 549.269531 C 641.972656 549.167969 641.449219 549.117188 640.925781 549.117188 C 640.398438 549.117188 639.878906 549.167969 639.363281 549.269531 C 638.84375 549.375 638.34375 549.523438 637.859375 549.726562 C 637.371094 549.929688 636.910156 550.175781 636.472656 550.464844 C 636.035156 550.757812 635.632812 551.089844 635.261719 551.464844 C 634.886719 551.835938 634.554688 552.238281 634.265625 552.675781 C 633.972656 553.113281 633.726562 553.574219 633.523438 554.0625 C 633.324219 554.546875 633.171875 555.046875 633.066406 555.5625 C 632.964844 556.078125 632.914062 556.601562 632.914062 557.125 C 632.914062 582.265625 653.800781 602.664062 679.175781 602.664062 C 704.546875 602.664062 725.4375 582.265625 725.4375 557.125 C 725.4375 531.988281 704.546875 511.597656 679.175781 511.597656 Z M 456.839844 511.597656 " fill-opacity="1" fill-rule="nonzero"/><g transform="matrix(1, 0, 0, 1, 446, 674)"><g clip-path="url(#80ad873243)"><g fill="#333f63" fill-opacity="1"><g transform="translate(2.637451, 42.864225)"><g><path d="M 24.65625 -19.71875 L 23.015625 -19.71875 C 22.890625 -19.71875 22.734375 -19.835938 22.546875 -20.078125 C 22.367188 -20.328125 22.15625 -20.644531 21.90625 -21.03125 C 21.664062 -21.414062 21.382812 -21.84375 21.0625 -22.3125 C 20.75 -22.78125 20.375 -23.242188 19.9375 -23.703125 C 19.507812 -24.171875 19.054688 -24.59375 18.578125 -24.96875 C 18.097656 -25.351562 17.53125 -25.664062 16.875 -25.90625 C 16.21875 -26.15625 15.539062 -26.28125 14.84375 -26.28125 C 13.613281 -26.28125 12.472656 -26.054688 11.421875 -25.609375 C 10.378906 -25.171875 9.492188 -24.578125 8.765625 -23.828125 C 8.035156 -23.085938 7.410156 -22.21875 6.890625 -21.21875 C 6.367188 -20.21875 5.984375 -19.160156 5.734375 -18.046875 C 5.492188 -16.941406 5.375 -15.804688 5.375 -14.640625 C 5.375 -13.523438 5.519531 -12.441406 5.8125 -11.390625 C 6.113281 -10.335938 6.570312 -9.34375 7.1875 -8.40625 C 7.800781 -7.46875 8.539062 -6.644531 9.40625 -5.9375 C 10.28125 -5.226562 11.332031 -4.664062 12.5625 -4.25 C 13.789062 -3.832031 15.125 -3.625 16.5625 -3.625 C 19.644531 -3.625 22.488281 -4.597656 25.09375 -6.546875 C 25.601562 -5.859375 25.859375 -5.179688 25.859375 -4.515625 C 25.859375 -3.566406 25.347656 -2.691406 24.328125 -1.890625 C 23.304688 -1.085938 22.046875 -0.484375 20.546875 -0.078125 C 19.054688 0.328125 17.550781 0.53125 16.03125 0.53125 C 13.988281 0.53125 12.109375 0.25 10.390625 -0.3125 C 8.679688 -0.882812 7.234375 -1.648438 6.046875 -2.609375 C 4.859375 -3.578125 3.84375 -4.707031 3 -6 C 2.164062 -7.289062 1.550781 -8.65625 1.15625 -10.09375 C 0.769531 -11.539062 0.578125 -13.03125 0.578125 -14.5625 C 0.578125 -16.632812 0.910156 -18.609375 1.578125 -20.484375 C 2.253906 -22.367188 3.1875 -24.007812 4.375 -25.40625 C 5.570312 -26.8125 7.050781 -27.925781 8.8125 -28.75 C 10.570312 -29.582031 12.46875 -30 14.5 -30 C 15.789062 -30 17.101562 -29.707031 18.4375 -29.125 C 19.769531 -28.550781 20.84375 -27.703125 21.65625 -26.578125 C 21.65625 -28.566406 21.914062 -29.5625 22.4375 -29.5625 L 24.65625 -29.5625 C 25.289062 -29.5625 25.609375 -28.875 25.609375 -27.5 L 25.609375 -22.203125 C 25.609375 -21.441406 25.570312 -20.882812 25.5 -20.53125 C 25.425781 -20.1875 25.332031 -19.96875 25.21875 -19.875 C 25.101562 -19.789062 24.914062 -19.738281 24.65625 -19.71875 Z M 24.65625 -19.71875 "/></g></g></g><g fill="#333f63" fill-opacity="1"><g transform="translate(32.635137, 42.864225)"><g><path d="M 21.59375 -0.328125 C 19.945312 0.242188 18.148438 0.53125 16.203125 0.53125 C 14.265625 0.53125 12.46875 0.242188 10.8125 -0.328125 C 9.15625 -0.898438 7.738281 -1.675781 6.5625 -2.65625 C 5.394531 -3.644531 4.394531 -4.796875 3.5625 -6.109375 C 2.738281 -7.421875 2.125 -8.8125 1.71875 -10.28125 C 1.320312 -11.757812 1.125 -13.269531 1.125 -14.8125 C 1.125 -16.363281 1.320312 -17.867188 1.71875 -19.328125 C 2.125 -20.785156 2.738281 -22.160156 3.5625 -23.453125 C 4.382812 -24.742188 5.378906 -25.875 6.546875 -26.84375 C 7.722656 -27.820312 9.140625 -28.59375 10.796875 -29.15625 C 12.460938 -29.71875 14.265625 -30 16.203125 -30 C 18.148438 -30 19.953125 -29.71875 21.609375 -29.15625 C 23.265625 -28.59375 24.675781 -27.820312 25.84375 -26.84375 C 27.019531 -25.875 28.019531 -24.742188 28.84375 -23.453125 C 29.675781 -22.160156 30.289062 -20.785156 30.6875 -19.328125 C 31.082031 -17.867188 31.28125 -16.363281 31.28125 -14.8125 C 31.28125 -13.269531 31.082031 -11.757812 30.6875 -10.28125 C 30.289062 -8.8125 29.675781 -7.421875 28.84375 -6.109375 C 28.007812 -4.796875 27.003906 -3.644531 25.828125 -2.65625 C 24.660156 -1.675781 23.25 -0.898438 21.59375 -0.328125 Z M 12.609375 -3.6875 C 13.710938 -3.25 14.910156 -3.03125 16.203125 -3.03125 C 17.503906 -3.03125 18.703125 -3.25 19.796875 -3.6875 C 20.890625 -4.132812 21.828125 -4.734375 22.609375 -5.484375 C 23.390625 -6.234375 24.054688 -7.101562 24.609375 -8.09375 C 25.160156 -9.09375 25.566406 -10.148438 25.828125 -11.265625 C 26.085938 -12.390625 26.21875 -13.546875 26.21875 -14.734375 C 26.21875 -16.234375 26.003906 -17.671875 25.578125 -19.046875 C 25.148438 -20.421875 24.53125 -21.660156 23.71875 -22.765625 C 22.914062 -23.878906 21.863281 -24.769531 20.5625 -25.4375 C 19.257812 -26.101562 17.804688 -26.4375 16.203125 -26.4375 C 14.609375 -26.4375 13.15625 -26.101562 11.84375 -25.4375 C 10.539062 -24.769531 9.488281 -23.878906 8.6875 -22.765625 C 7.882812 -21.660156 7.265625 -20.421875 6.828125 -19.046875 C 6.398438 -17.671875 6.1875 -16.234375 6.1875 -14.734375 C 6.1875 -13.546875 6.316406 -12.390625 6.578125 -11.265625 C 6.847656 -10.148438 7.253906 -9.09375 7.796875 -8.09375 C 8.347656 -7.101562 9.015625 -6.234375 9.796875 -5.484375 C 10.578125 -4.734375 11.515625 -4.132812 12.609375 -3.6875 Z M 12.609375 -3.6875 "/></g></g></g><g fill="#333f63" fill-opacity="1"><g transform="translate(68.544306, 42.864225)"><g><path d="M 2.421875 -29.8125 C 2.640625 -29.800781 3.003906 -29.769531 3.515625 -29.71875 C 4.023438 -29.664062 4.488281 -29.625 4.90625 -29.59375 C 5.332031 -29.570312 5.8125 -29.5625 6.34375 -29.5625 C 6.769531 -29.5625 7.289062 -29.582031 7.90625 -29.625 C 8.53125 -29.664062 8.910156 -29.6875 9.046875 -29.6875 C 9.085938 -29.6875 9.132812 -29.679688 9.1875 -29.671875 C 9.238281 -29.671875 9.269531 -29.671875 9.28125 -29.671875 C 9.507812 -29.660156 10.347656 -28.722656 11.796875 -26.859375 C 13.253906 -24.992188 15.015625 -22.632812 17.078125 -19.78125 C 19.148438 -16.925781 20.753906 -14.695312 21.890625 -13.09375 C 23.035156 -11.488281 24.0625 -10.046875 24.96875 -8.765625 L 24.96875 -24.3125 C 24.96875 -24.71875 24.890625 -25.023438 24.734375 -25.234375 C 24.578125 -25.453125 24.238281 -25.5625 23.71875 -25.5625 C 23.113281 -25.5625 22.59375 -25.640625 22.15625 -25.796875 C 21.71875 -25.960938 21.5 -26.203125 21.5 -26.515625 C 21.5 -27.191406 21.566406 -27.835938 21.703125 -28.453125 C 21.847656 -29.066406 22.066406 -29.476562 22.359375 -29.6875 C 23.546875 -29.601562 25.125 -29.5625 27.09375 -29.5625 C 29.082031 -29.5625 30.648438 -29.601562 31.796875 -29.6875 C 32.085938 -29.476562 32.300781 -29.066406 32.4375 -28.453125 C 32.582031 -27.835938 32.65625 -27.191406 32.65625 -26.515625 C 32.65625 -26.203125 32.4375 -25.960938 32 -25.796875 C 31.5625 -25.640625 31.035156 -25.5625 30.421875 -25.5625 C 30.140625 -25.5625 29.90625 -25.523438 29.71875 -25.453125 C 29.53125 -25.378906 29.398438 -25.269531 29.328125 -25.125 C 29.253906 -24.988281 29.207031 -24.863281 29.1875 -24.75 C 29.164062 -24.632812 29.15625 -24.476562 29.15625 -24.28125 L 29.15625 -8.21875 C 29.15625 -7.300781 29.195312 -5.835938 29.28125 -3.828125 C 29.375 -1.828125 29.421875 -0.644531 29.421875 -0.28125 C 28.742188 0.394531 28.03125 0.734375 27.28125 0.734375 C 27.113281 0.734375 26.960938 0.707031 26.828125 0.65625 C 26.691406 0.601562 26.5625 0.515625 26.4375 0.390625 C 26.320312 0.265625 26.226562 0.15625 26.15625 0.0625 C 26.082031 -0.0195312 25.976562 -0.160156 25.84375 -0.359375 C 25.71875 -0.566406 25.617188 -0.71875 25.546875 -0.8125 C 24.347656 -2.507812 21.296875 -6.757812 16.390625 -13.5625 C 11.484375 -20.363281 9.03125 -23.75 9.03125 -23.71875 L 9.03125 -5.25 C 9.03125 -5.050781 9.035156 -4.894531 9.046875 -4.78125 C 9.066406 -4.675781 9.113281 -4.550781 9.1875 -4.40625 C 9.257812 -4.257812 9.390625 -4.148438 9.578125 -4.078125 C 9.765625 -4.003906 10.003906 -3.96875 10.296875 -3.96875 C 10.898438 -3.96875 11.421875 -3.882812 11.859375 -3.71875 C 12.296875 -3.5625 12.515625 -3.328125 12.515625 -3.015625 C 12.515625 -2.335938 12.441406 -1.679688 12.296875 -1.046875 C 12.160156 -0.410156 11.945312 0.0078125 11.65625 0.21875 C 9.863281 0.0703125 8.300781 0 6.96875 0 C 5.707031 0 4.191406 0.0703125 2.421875 0.21875 C 2.066406 0.0078125 1.800781 -0.410156 1.625 -1.046875 C 1.457031 -1.679688 1.375 -2.335938 1.375 -3.015625 C 1.375 -3.328125 1.585938 -3.5625 2.015625 -3.71875 C 2.453125 -3.882812 2.976562 -3.96875 3.59375 -3.96875 C 4.101562 -3.96875 4.4375 -4.078125 4.59375 -4.296875 C 4.757812 -4.515625 4.84375 -4.820312 4.84375 -5.21875 L 4.84375 -24.375 C 4.84375 -24.769531 4.757812 -25.078125 4.59375 -25.296875 C 4.4375 -25.515625 4.101562 -25.625 3.59375 -25.625 C 2.113281 -25.625 1.375 -25.96875 1.375 -26.65625 C 1.375 -27.300781 1.457031 -27.9375 1.625 -28.5625 C 1.800781 -29.195312 2.066406 -29.613281 2.421875 -29.8125 Z M 2.421875 -29.8125 "/></g></g></g><g fill="#333f63" fill-opacity="1"><g transform="translate(106.040449, 42.864225)"><g><path d="M 9.25 -3.4375 L 16.9375 -3.4375 C 18.0625 -3.4375 19.109375 -3.644531 20.078125 -4.0625 C 21.054688 -4.488281 21.894531 -5.0625 22.59375 -5.78125 C 23.289062 -6.5 23.882812 -7.34375 24.375 -8.3125 C 24.875 -9.28125 25.242188 -10.304688 25.484375 -11.390625 C 25.734375 -12.484375 25.859375 -13.597656 25.859375 -14.734375 C 25.859375 -16.179688 25.648438 -17.578125 25.234375 -18.921875 C 24.816406 -20.273438 24.222656 -21.5 23.453125 -22.59375 C 22.679688 -23.6875 21.675781 -24.5625 20.4375 -25.21875 C 19.207031 -25.882812 17.84375 -26.21875 16.34375 -26.21875 L 9.25 -26.21875 Z M 2.234375 -29.8125 C 3.984375 -29.644531 6.421875 -29.5625 9.546875 -29.5625 C 10.546875 -29.5625 11.804688 -29.601562 13.328125 -29.6875 C 14.859375 -29.769531 15.863281 -29.8125 16.34375 -29.8125 C 18.3125 -29.8125 20.113281 -29.53125 21.75 -28.96875 C 23.394531 -28.40625 24.78125 -27.640625 25.90625 -26.671875 C 27.03125 -25.710938 27.984375 -24.59375 28.765625 -23.3125 C 29.554688 -22.03125 30.128906 -20.671875 30.484375 -19.234375 C 30.847656 -17.804688 31.03125 -16.332031 31.03125 -14.8125 C 31.03125 -13.269531 30.851562 -11.78125 30.5 -10.34375 C 30.144531 -8.90625 29.59375 -7.539062 28.84375 -6.25 C 28.101562 -4.96875 27.191406 -3.847656 26.109375 -2.890625 C 25.023438 -1.941406 23.691406 -1.1875 22.109375 -0.625 C 20.535156 -0.0625 18.8125 0.21875 16.9375 0.21875 C 16.382812 0.21875 15.34375 0.179688 13.8125 0.109375 C 12.289062 0.0351562 10.941406 0 9.765625 0 C 9.203125 0 8.523438 0.0078125 7.734375 0.03125 C 6.941406 0.0625 5.992188 0.0976562 4.890625 0.140625 C 3.796875 0.179688 2.910156 0.207031 2.234375 0.21875 C 1.878906 0.0078125 1.613281 -0.410156 1.4375 -1.046875 C 1.269531 -1.679688 1.1875 -2.335938 1.1875 -3.015625 C 1.1875 -3.328125 1.40625 -3.5625 1.84375 -3.71875 C 2.28125 -3.882812 2.800781 -3.96875 3.40625 -3.96875 C 3.925781 -3.96875 4.265625 -4.078125 4.421875 -4.296875 C 4.578125 -4.515625 4.65625 -4.820312 4.65625 -5.21875 L 4.65625 -24.375 C 4.65625 -24.769531 4.578125 -25.078125 4.421875 -25.296875 C 4.265625 -25.515625 3.925781 -25.625 3.40625 -25.625 C 1.925781 -25.625 1.1875 -25.96875 1.1875 -26.65625 C 1.1875 -27.300781 1.269531 -27.9375 1.4375 -28.5625 C 1.613281 -29.195312 1.878906 -29.613281 2.234375 -29.8125 Z M 2.234375 -29.8125 "/></g></g></g><g fill="#333f63" fill-opacity="1"><g transform="translate(141.691746, 42.864225)"><g><path d="M 2.234375 -29.8125 C 4.429688 -29.644531 6.015625 -29.5625 6.984375 -29.5625 C 8.015625 -29.5625 9.644531 -29.644531 11.875 -29.8125 C 12.164062 -29.601562 12.378906 -29.175781 12.515625 -28.53125 C 12.660156 -27.894531 12.734375 -27.234375 12.734375 -26.546875 C 12.734375 -26.222656 12.515625 -25.984375 12.078125 -25.828125 C 11.640625 -25.671875 11.117188 -25.59375 10.515625 -25.59375 C 10.222656 -25.59375 9.984375 -25.554688 9.796875 -25.484375 C 9.609375 -25.410156 9.476562 -25.300781 9.40625 -25.15625 C 9.332031 -25.007812 9.285156 -24.878906 9.265625 -24.765625 C 9.253906 -24.648438 9.25 -24.492188 9.25 -24.296875 L 9.25 -5.25 C 9.25 -5.050781 9.253906 -4.894531 9.265625 -4.78125 C 9.285156 -4.675781 9.332031 -4.550781 9.40625 -4.40625 C 9.476562 -4.257812 9.609375 -4.148438 9.796875 -4.078125 C 9.984375 -4.003906 10.222656 -3.96875 10.515625 -3.96875 C 11.117188 -3.96875 11.640625 -3.882812 12.078125 -3.71875 C 12.515625 -3.5625 12.734375 -3.328125 12.734375 -3.015625 C 12.734375 -2.328125 12.660156 -1.664062 12.515625 -1.03125 C 12.378906 -0.40625 12.164062 0.0078125 11.875 0.21875 C 9.988281 0.0703125 8.359375 0 6.984375 0 C 5.679688 0 4.097656 0.0703125 2.234375 0.21875 C 1.878906 0.0078125 1.613281 -0.410156 1.4375 -1.046875 C 1.269531 -1.679688 1.1875 -2.335938 1.1875 -3.015625 C 1.1875 -3.328125 1.40625 -3.5625 1.84375 -3.71875 C 2.28125 -3.882812 2.800781 -3.96875 3.40625 -3.96875 C 3.925781 -3.96875 4.265625 -4.078125 4.421875 -4.296875 C 4.578125 -4.515625 4.65625 -4.820312 4.65625 -5.21875 L 4.65625 -24.375 C 4.65625 -24.769531 4.578125 -25.078125 4.421875 -25.296875 C 4.265625 -25.515625 3.925781 -25.625 3.40625 -25.625 C 1.925781 -25.625 1.1875 -25.96875 1.1875 -26.65625 C 1.1875 -27.300781 1.269531 -27.9375 1.4375 -28.5625 C 1.613281 -29.195312 1.878906 -29.613281 2.234375 -29.8125 Z M 2.234375 -29.8125 "/></g></g></g><g fill="#333f63" fill-opacity="1"><g transform="translate(159.112655, 42.864225)"><g><path d="M 10.84375 -5.21875 L 10.84375 -25.703125 C 10.84375 -25.847656 10.835938 -25.960938 10.828125 -26.046875 C 10.816406 -26.128906 10.773438 -26.207031 10.703125 -26.28125 C 10.628906 -26.363281 10.519531 -26.40625 10.375 -26.40625 C 9.75 -26.40625 8.84375 -26.40625 7.65625 -26.40625 C 6.476562 -26.414062 5.632812 -26.421875 5.125 -26.421875 C 5 -26.160156 4.800781 -25.503906 4.53125 -24.453125 C 4.257812 -23.398438 3.984375 -22.472656 3.703125 -21.671875 C 3.429688 -20.878906 3.179688 -20.484375 2.953125 -20.484375 C 2.453125 -20.484375 2.003906 -20.550781 1.609375 -20.6875 C 1.222656 -20.820312 0.925781 -20.984375 0.71875 -21.171875 C 0.519531 -21.367188 0.367188 -21.546875 0.265625 -21.703125 C 0.171875 -21.867188 0.125 -22 0.125 -22.09375 C 0.125 -22.539062 0.367188 -23.898438 0.859375 -26.171875 C 1.347656 -28.453125 1.679688 -29.6875 1.859375 -29.875 C 1.898438 -29.875 1.941406 -29.867188 1.984375 -29.859375 C 2.023438 -29.859375 2.066406 -29.859375 2.109375 -29.859375 C 6.035156 -29.523438 9.71875 -29.359375 13.15625 -29.359375 C 16.582031 -29.359375 20.257812 -29.523438 24.1875 -29.859375 C 24.21875 -29.859375 24.253906 -29.859375 24.296875 -29.859375 C 24.335938 -29.867188 24.378906 -29.875 24.421875 -29.875 C 24.609375 -29.6875 24.945312 -28.453125 25.4375 -26.171875 C 25.925781 -23.898438 26.171875 -22.539062 26.171875 -22.09375 C 26.171875 -22 26.117188 -21.867188 26.015625 -21.703125 C 25.910156 -21.546875 25.753906 -21.367188 25.546875 -21.171875 C 25.347656 -20.984375 25.050781 -20.820312 24.65625 -20.6875 C 24.269531 -20.550781 23.828125 -20.484375 23.328125 -20.484375 C 23.097656 -20.484375 22.84375 -20.878906 22.5625 -21.671875 C 22.289062 -22.472656 22.019531 -23.398438 21.75 -24.453125 C 21.476562 -25.503906 21.285156 -26.160156 21.171875 -26.421875 C 20.648438 -26.421875 19.796875 -26.414062 18.609375 -26.40625 C 17.429688 -26.40625 16.53125 -26.40625 15.90625 -26.40625 C 15.695312 -26.40625 15.566406 -26.34375 15.515625 -26.21875 C 15.460938 -26.101562 15.4375 -25.929688 15.4375 -25.703125 L 15.4375 -5.25 C 15.4375 -5.050781 15.445312 -4.894531 15.46875 -4.78125 C 15.488281 -4.675781 15.53125 -4.550781 15.59375 -4.40625 C 15.664062 -4.257812 15.796875 -4.148438 15.984375 -4.078125 C 16.171875 -4.003906 16.410156 -3.96875 16.703125 -3.96875 C 17.304688 -3.96875 17.828125 -3.882812 18.265625 -3.71875 C 18.703125 -3.5625 18.921875 -3.328125 18.921875 -3.015625 C 18.921875 -1.253906 18.703125 -0.175781 18.265625 0.21875 C 16.285156 0.0703125 14.585938 0 13.171875 0 C 11.785156 0 10.070312 0.0703125 8.03125 0.21875 C 7.59375 -0.175781 7.375 -1.253906 7.375 -3.015625 C 7.375 -3.328125 7.59375 -3.5625 8.03125 -3.71875 C 8.46875 -3.882812 8.988281 -3.96875 9.59375 -3.96875 C 10.113281 -3.96875 10.453125 -4.078125 10.609375 -4.296875 C 10.765625 -4.515625 10.84375 -4.820312 10.84375 -5.21875 Z M 10.84375 -5.21875 "/></g></g></g><g fill="#333f63" fill-opacity="1"><g transform="translate(188.911969, 42.864225)"><g><path d="M 2.234375 -29.8125 C 4.429688 -29.644531 6.015625 -29.5625 6.984375 -29.5625 C 8.015625 -29.5625 9.644531 -29.644531 11.875 -29.8125 C 12.164062 -29.601562 12.378906 -29.175781 12.515625 -28.53125 C 12.660156 -27.894531 12.734375 -27.234375 12.734375 -26.546875 C 12.734375 -26.222656 12.515625 -25.984375 12.078125 -25.828125 C 11.640625 -25.671875 11.117188 -25.59375 10.515625 -25.59375 C 10.222656 -25.59375 9.984375 -25.554688 9.796875 -25.484375 C 9.609375 -25.410156 9.476562 -25.300781 9.40625 -25.15625 C 9.332031 -25.007812 9.285156 -24.878906 9.265625 -24.765625 C 9.253906 -24.648438 9.25 -24.492188 9.25 -24.296875 L 9.25 -5.25 C 9.25 -5.050781 9.253906 -4.894531 9.265625 -4.78125 C 9.285156 -4.675781 9.332031 -4.550781 9.40625 -4.40625 C 9.476562 -4.257812 9.609375 -4.148438 9.796875 -4.078125 C 9.984375 -4.003906 10.222656 -3.96875 10.515625 -3.96875 C 11.117188 -3.96875 11.640625 -3.882812 12.078125 -3.71875 C 12.515625 -3.5625 12.734375 -3.328125 12.734375 -3.015625 C 12.734375 -2.328125 12.660156 -1.664062 12.515625 -1.03125 C 12.378906 -0.40625 12.164062 0.0078125 11.875 0.21875 C 9.988281 0.0703125 8.359375 0 6.984375 0 C 5.679688 0 4.097656 0.0703125 2.234375 0.21875 C 1.878906 0.0078125 1.613281 -0.410156 1.4375 -1.046875 C 1.269531 -1.679688 1.1875 -2.335938 1.1875 -3.015625 C 1.1875 -3.328125 1.40625 -3.5625 1.84375 -3.71875 C 2.28125 -3.882812 2.800781 -3.96875 3.40625 -3.96875 C 3.925781 -3.96875 4.265625 -4.078125 4.421875 -4.296875 C 4.578125 -4.515625 4.65625 -4.820312 4.65625 -5.21875 L 4.65625 -24.375 C 4.65625 -24.769531 4.578125 -25.078125 4.421875 -25.296875 C 4.265625 -25.515625 3.925781 -25.625 3.40625 -25.625 C 1.925781 -25.625 1.1875 -25.96875 1.1875 -26.65625 C 1.1875 -27.300781 1.269531 -27.9375 1.4375 -28.5625 C 1.613281 -29.195312 1.878906 -29.613281 2.234375 -29.8125 Z M 2.234375 -29.8125 "/></g></g></g><g fill="#333f63" fill-opacity="1"><g transform="translate(206.332877, 42.864225)"><g><path d="M 21.59375 -0.328125 C 19.945312 0.242188 18.148438 0.53125 16.203125 0.53125 C 14.265625 0.53125 12.46875 0.242188 10.8125 -0.328125 C 9.15625 -0.898438 7.738281 -1.675781 6.5625 -2.65625 C 5.394531 -3.644531 4.394531 -4.796875 3.5625 -6.109375 C 2.738281 -7.421875 2.125 -8.8125 1.71875 -10.28125 C 1.320312 -11.757812 1.125 -13.269531 1.125 -14.8125 C 1.125 -16.363281 1.320312 -17.867188 1.71875 -19.328125 C 2.125 -20.785156 2.738281 -22.160156 3.5625 -23.453125 C 4.382812 -24.742188 5.378906 -25.875 6.546875 -26.84375 C 7.722656 -27.820312 9.140625 -28.59375 10.796875 -29.15625 C 12.460938 -29.71875 14.265625 -30 16.203125 -30 C 18.148438 -30 19.953125 -29.71875 21.609375 -29.15625 C 23.265625 -28.59375 24.675781 -27.820312 25.84375 -26.84375 C 27.019531 -25.875 28.019531 -24.742188 28.84375 -23.453125 C 29.675781 -22.160156 30.289062 -20.785156 30.6875 -19.328125 C 31.082031 -17.867188 31.28125 -16.363281 31.28125 -14.8125 C 31.28125 -13.269531 31.082031 -11.757812 30.6875 -10.28125 C 30.289062 -8.8125 29.675781 -7.421875 28.84375 -6.109375 C 28.007812 -4.796875 27.003906 -3.644531 25.828125 -2.65625 C 24.660156 -1.675781 23.25 -0.898438 21.59375 -0.328125 Z M 12.609375 -3.6875 C 13.710938 -3.25 14.910156 -3.03125 16.203125 -3.03125 C 17.503906 -3.03125 18.703125 -3.25 19.796875 -3.6875 C 20.890625 -4.132812 21.828125 -4.734375 22.609375 -5.484375 C 23.390625 -6.234375 24.054688 -7.101562 24.609375 -8.09375 C 25.160156 -9.09375 25.566406 -10.148438 25.828125 -11.265625 C 26.085938 -12.390625 26.21875 -13.546875 26.21875 -14.734375 C 26.21875 -16.234375 26.003906 -17.671875 25.578125 -19.046875 C 25.148438 -20.421875 24.53125 -21.660156 23.71875 -22.765625 C 22.914062 -23.878906 21.863281 -24.769531 20.5625 -25.4375 C 19.257812 -26.101562 17.804688 -26.4375 16.203125 -26.4375 C 14.609375 -26.4375 13.15625 -26.101562 11.84375 -25.4375 C 10.539062 -24.769531 9.488281 -23.878906 8.6875 -22.765625 C 7.882812 -21.660156 7.265625 -20.421875 6.828125 -19.046875 C 6.398438 -17.671875 6.1875 -16.234375 6.1875 -14.734375 C 6.1875 -13.546875 6.316406 -12.390625 6.578125 -11.265625 C 6.847656 -10.148438 7.253906 -9.09375 7.796875 -8.09375 C 8.347656 -7.101562 9.015625 -6.234375 9.796875 -5.484375 C 10.578125 -4.734375 11.515625 -4.132812 12.609375 -3.6875 Z M 12.609375 -3.6875 "/></g></g></g><g fill="#333f63" fill-opacity="1"><g transform="translate(242.242046, 42.864225)"><g><path d="M 2.421875 -29.8125 C 2.640625 -29.800781 3.003906 -29.769531 3.515625 -29.71875 C 4.023438 -29.664062 4.488281 -29.625 4.90625 -29.59375 C 5.332031 -29.570312 5.8125 -29.5625 6.34375 -29.5625 C 6.769531 -29.5625 7.289062 -29.582031 7.90625 -29.625 C 8.53125 -29.664062 8.910156 -29.6875 9.046875 -29.6875 C 9.085938 -29.6875 9.132812 -29.679688 9.1875 -29.671875 C 9.238281 -29.671875 9.269531 -29.671875 9.28125 -29.671875 C 9.507812 -29.660156 10.347656 -28.722656 11.796875 -26.859375 C 13.253906 -24.992188 15.015625 -22.632812 17.078125 -19.78125 C 19.148438 -16.925781 20.753906 -14.695312 21.890625 -13.09375 C 23.035156 -11.488281 24.0625 -10.046875 24.96875 -8.765625 L 24.96875 -24.3125 C 24.96875 -24.71875 24.890625 -25.023438 24.734375 -25.234375 C 24.578125 -25.453125 24.238281 -25.5625 23.71875 -25.5625 C 23.113281 -25.5625 22.59375 -25.640625 22.15625 -25.796875 C 21.71875 -25.960938 21.5 -26.203125 21.5 -26.515625 C 21.5 -27.191406 21.566406 -27.835938 21.703125 -28.453125 C 21.847656 -29.066406 22.066406 -29.476562 22.359375 -29.6875 C 23.546875 -29.601562 25.125 -29.5625 27.09375 -29.5625 C 29.082031 -29.5625 30.648438 -29.601562 31.796875 -29.6875 C 32.085938 -29.476562 32.300781 -29.066406 32.4375 -28.453125 C 32.582031 -27.835938 32.65625 -27.191406 32.65625 -26.515625 C 32.65625 -26.203125 32.4375 -25.960938 32 -25.796875 C 31.5625 -25.640625 31.035156 -25.5625 30.421875 -25.5625 C 30.140625 -25.5625 29.90625 -25.523438 29.71875 -25.453125 C 29.53125 -25.378906 29.398438 -25.269531 29.328125 -25.125 C 29.253906 -24.988281 29.207031 -24.863281 29.1875 -24.75 C 29.164062 -24.632812 29.15625 -24.476562 29.15625 -24.28125 L 29.15625 -8.21875 C 29.15625 -7.300781 29.195312 -5.835938 29.28125 -3.828125 C 29.375 -1.828125 29.421875 -0.644531 29.421875 -0.28125 C 28.742188 0.394531 28.03125 0.734375 27.28125 0.734375 C 27.113281 0.734375 26.960938 0.707031 26.828125 0.65625 C 26.691406 0.601562 26.5625 0.515625 26.4375 0.390625 C 26.320312 0.265625 26.226562 0.15625 26.15625 0.0625 C 26.082031 -0.0195312 25.976562 -0.160156 25.84375 -0.359375 C 25.71875 -0.566406 25.617188 -0.71875 25.546875 -0.8125 C 24.347656 -2.507812 21.296875 -6.757812 16.390625 -13.5625 C 11.484375 -20.363281 9.03125 -23.75 9.03125 -23.71875 L 9.03125 -5.25 C 9.03125 -5.050781 9.035156 -4.894531 9.046875 -4.78125 C 9.066406 -4.675781 9.113281 -4.550781 9.1875 -4.40625 C 9.257812 -4.257812 9.390625 -4.148438 9.578125 -4.078125 C 9.765625 -4.003906 10.003906 -3.96875 10.296875 -3.96875 C 10.898438 -3.96875 11.421875 -3.882812 11.859375 -3.71875 C 12.296875 -3.5625 12.515625 -3.328125 12.515625 -3.015625 C 12.515625 -2.335938 12.441406 -1.679688 12.296875 -1.046875 C 12.160156 -0.410156 11.945312 0.0078125 11.65625 0.21875 C 9.863281 0.0703125 8.300781 0 6.96875 0 C 5.707031 0 4.191406 0.0703125 2.421875 0.21875 C 2.066406 0.0078125 1.800781 -0.410156 1.625 -1.046875 C 1.457031 -1.679688 1.375 -2.335938 1.375 -3.015625 C 1.375 -3.328125 1.585938 -3.5625 2.015625 -3.71875 C 2.453125 -3.882812 2.976562 -3.96875 3.59375 -3.96875 C 4.101562 -3.96875 4.4375 -4.078125 4.59375 -4.296875 C 4.757812 -4.515625 4.84375 -4.820312 4.84375 -5.21875 L 4.84375 -24.375 C 4.84375 -24.769531 4.757812 -25.078125 4.59375 -25.296875 C 4.4375 -25.515625 4.101562 -25.625 3.59375 -25.625 C 2.113281 -25.625 1.375 -25.96875 1.375 -26.65625 C 1.375 -27.300781 1.457031 -27.9375 1.625 -28.5625 C 1.800781 -29.195312 2.066406 -29.613281 2.421875 -29.8125 Z M 2.421875 -29.8125 "/></g></g></g><g fill="#333f63" fill-opacity="1"><g transform="translate(279.73819, 42.864225)"><g><path d="M 4.9375 0.21875 L 3.015625 0.21875 C 2.148438 -3.519531 1.71875 -6.34375 1.71875 -8.25 C 1.71875 -8.550781 2.015625 -8.800781 2.609375 -9 C 3.210938 -9.195312 3.835938 -9.296875 4.484375 -9.296875 C 4.742188 -9.296875 4.957031 -9.28125 5.125 -9.25 C 5.539062 -8.175781 6.125 -7.222656 6.875 -6.390625 C 7.632812 -5.554688 8.457031 -4.898438 9.34375 -4.421875 C 10.238281 -3.941406 11.132812 -3.578125 12.03125 -3.328125 C 12.925781 -3.085938 13.789062 -2.96875 14.625 -2.96875 C 16.144531 -2.96875 17.382812 -3.304688 18.34375 -3.984375 C 19.300781 -4.671875 19.78125 -5.675781 19.78125 -7 C 19.78125 -7.882812 19.5625 -8.660156 19.125 -9.328125 C 18.695312 -9.992188 18.125 -10.535156 17.40625 -10.953125 C 16.6875 -11.367188 15.859375 -11.734375 14.921875 -12.046875 C 13.992188 -12.367188 13.007812 -12.671875 11.96875 -12.953125 C 10.9375 -13.234375 9.898438 -13.523438 8.859375 -13.828125 C 7.816406 -14.128906 6.828125 -14.507812 5.890625 -14.96875 C 4.960938 -15.4375 4.140625 -15.976562 3.421875 -16.59375 C 2.703125 -17.207031 2.125 -18.003906 1.6875 -18.984375 C 1.257812 -19.960938 1.046875 -21.085938 1.046875 -22.359375 C 1.046875 -23.984375 1.546875 -25.382812 2.546875 -26.5625 C 3.554688 -27.75 4.828125 -28.617188 6.359375 -29.171875 C 7.890625 -29.722656 9.550781 -30 11.34375 -30 C 14.144531 -30 16.523438 -29.296875 18.484375 -27.890625 C 18.617188 -28.148438 18.722656 -28.40625 18.796875 -28.65625 C 18.867188 -28.914062 18.90625 -29.085938 18.90625 -29.171875 C 18.90625 -29.265625 18.957031 -29.351562 19.0625 -29.4375 C 19.175781 -29.519531 19.316406 -29.5625 19.484375 -29.5625 C 19.660156 -29.570312 19.976562 -29.578125 20.4375 -29.578125 C 20.832031 -29.578125 21.457031 -29.546875 22.3125 -29.484375 C 23.144531 -25.785156 23.5625 -23.160156 23.5625 -21.609375 C 23.5625 -21.390625 23.210938 -21.210938 22.515625 -21.078125 C 21.828125 -20.953125 21.148438 -20.890625 20.484375 -20.890625 L 20 -20.890625 C 19.507812 -22.617188 18.535156 -24.039062 17.078125 -25.15625 C 15.617188 -26.28125 13.785156 -26.84375 11.578125 -26.84375 C 9.710938 -26.84375 8.3125 -26.46875 7.375 -25.71875 C 6.4375 -24.976562 5.96875 -23.96875 5.96875 -22.6875 C 5.96875 -21.9375 6.179688 -21.269531 6.609375 -20.6875 C 7.046875 -20.101562 7.625 -19.625 8.34375 -19.25 C 9.070312 -18.875 9.90625 -18.535156 10.84375 -18.234375 C 11.789062 -17.929688 12.785156 -17.632812 13.828125 -17.34375 C 14.867188 -17.050781 15.910156 -16.738281 16.953125 -16.40625 C 18.003906 -16.070312 19 -15.660156 19.9375 -15.171875 C 20.875 -14.679688 21.707031 -14.117188 22.4375 -13.484375 C 23.164062 -12.847656 23.742188 -12.035156 24.171875 -11.046875 C 24.597656 -10.066406 24.8125 -8.957031 24.8125 -7.71875 C 24.8125 -6.300781 24.535156 -5.046875 23.984375 -3.953125 C 23.429688 -2.867188 22.671875 -2.007812 21.703125 -1.375 C 20.742188 -0.738281 19.671875 -0.265625 18.484375 0.046875 C 17.304688 0.367188 16.035156 0.53125 14.671875 0.53125 C 13.222656 0.53125 11.78125 0.285156 10.34375 -0.203125 C 8.90625 -0.691406 7.609375 -1.367188 6.453125 -2.234375 L 6.109375 -0.28125 C 6.078125 -0.15625 6.039062 -0.0625 6 0 C 5.957031 0.0507812 5.847656 0.0976562 5.671875 0.140625 C 5.503906 0.191406 5.257812 0.21875 4.9375 0.21875 Z M 4.9375 0.21875 "/></g></g></g><g fill="#333f63" fill-opacity="1"><g transform="translate(308.922563, 42.864225)"><g/></g></g><g fill="#333f63" fill-opacity="1"><g transform="translate(322.336359, 42.864225)"><g><path d="M 9.25 -16.71875 L 17.5 -16.71875 C 19.144531 -16.71875 20.441406 -17.171875 21.390625 -18.078125 C 22.347656 -18.992188 22.828125 -20.066406 22.828125 -21.296875 C 22.828125 -22.640625 22.328125 -23.796875 21.328125 -24.765625 C 20.335938 -25.734375 18.925781 -26.21875 17.09375 -26.21875 L 9.25 -26.21875 Z M 2.234375 -29.8125 C 3.984375 -29.644531 6.421875 -29.5625 9.546875 -29.5625 C 10.671875 -29.5625 12.070312 -29.613281 13.75 -29.71875 C 15.4375 -29.820312 16.550781 -29.875 17.09375 -29.875 C 18.757812 -29.875 20.265625 -29.628906 21.609375 -29.140625 C 22.953125 -28.660156 24.035156 -28.019531 24.859375 -27.21875 C 25.691406 -26.425781 26.320312 -25.53125 26.75 -24.53125 C 27.1875 -23.539062 27.40625 -22.507812 27.40625 -21.4375 C 27.40625 -20.769531 27.300781 -20.09375 27.09375 -19.40625 C 26.894531 -18.726562 26.578125 -18.070312 26.140625 -17.4375 C 25.703125 -16.8125 25.179688 -16.25 24.578125 -15.75 C 23.984375 -15.257812 23.253906 -14.851562 22.390625 -14.53125 C 21.523438 -14.207031 20.59375 -14.023438 19.59375 -13.984375 C 20.601562 -13.648438 21.460938 -13.070312 22.171875 -12.25 C 22.890625 -11.425781 23.429688 -10.546875 23.796875 -9.609375 C 24.160156 -8.679688 24.492188 -7.769531 24.796875 -6.875 C 25.109375 -5.976562 25.484375 -5.234375 25.921875 -4.640625 C 26.359375 -4.054688 26.894531 -3.765625 27.53125 -3.765625 C 29.40625 -3.765625 30.34375 -3.59375 30.34375 -3.25 L 30.34375 -2.515625 C 30.34375 -2.066406 30.3125 -1.703125 30.25 -1.421875 C 30.1875 -1.148438 30.035156 -0.859375 29.796875 -0.546875 C 29.554688 -0.234375 29.164062 -0.00390625 28.625 0.140625 C 28.082031 0.296875 27.378906 0.375 26.515625 0.375 C 25.671875 0.375 24.925781 0.234375 24.28125 -0.046875 C 23.644531 -0.328125 23.117188 -0.707031 22.703125 -1.1875 C 22.285156 -1.675781 21.914062 -2.238281 21.59375 -2.875 C 21.28125 -3.507812 20.992188 -4.179688 20.734375 -4.890625 C 20.484375 -5.609375 20.226562 -6.332031 19.96875 -7.0625 C 19.707031 -7.789062 19.394531 -8.5 19.03125 -9.1875 C 18.664062 -9.882812 18.25 -10.515625 17.78125 -11.078125 C 17.3125 -11.640625 16.707031 -12.125 15.96875 -12.53125 C 15.238281 -12.945312 14.398438 -13.226562 13.453125 -13.375 L 9.25 -13.375 L 9.25 -5.25 C 9.25 -5.050781 9.253906 -4.894531 9.265625 -4.78125 C 9.285156 -4.675781 9.332031 -4.550781 9.40625 -4.40625 C 9.476562 -4.257812 9.609375 -4.148438 9.796875 -4.078125 C 9.984375 -4.003906 10.222656 -3.96875 10.515625 -3.96875 C 11.117188 -3.96875 11.640625 -3.882812 12.078125 -3.71875 C 12.515625 -3.5625 12.734375 -3.328125 12.734375 -3.015625 C 12.734375 -1.253906 12.515625 -0.175781 12.078125 0.21875 C 10.097656 0.0703125 8.398438 0 6.984375 0 C 5.765625 0 4.179688 0.0703125 2.234375 0.21875 C 1.878906 0.0078125 1.613281 -0.410156 1.4375 -1.046875 C 1.269531 -1.679688 1.1875 -2.335938 1.1875 -3.015625 C 1.1875 -3.328125 1.40625 -3.5625 1.84375 -3.71875 C 2.28125 -3.882812 2.800781 -3.96875 3.40625 -3.96875 C 3.925781 -3.96875 4.265625 -4.078125 4.421875 -4.296875 C 4.578125 -4.515625 4.65625 -4.820312 4.65625 -5.21875 L 4.65625 -24.375 C 4.65625 -24.769531 4.578125 -25.078125 4.421875 -25.296875 C 4.265625 -25.515625 3.925781 -25.625 3.40625 -25.625 C 1.925781 -25.625 1.1875 -25.96875 1.1875 -26.65625 C 1.1875 -27.300781 1.269531 -27.9375 1.4375 -28.5625 C 1.613281 -29.195312 1.878906 -29.613281 2.234375 -29.8125 Z M 2.234375 -29.8125 "/></g></g></g><g fill="#333f63" fill-opacity="1"><g transform="translate(357.015622, 42.864225)"><g><path d="M 2.234375 -29.8125 C 7.523438 -29.644531 11.082031 -29.5625 12.90625 -29.5625 C 14.164062 -29.5625 15.46875 -29.578125 16.8125 -29.609375 C 18.164062 -29.640625 19.4375 -29.679688 20.625 -29.734375 C 21.820312 -29.785156 22.546875 -29.8125 22.796875 -29.8125 C 23.015625 -29.613281 23.425781 -28.265625 24.03125 -25.765625 C 24.632812 -23.265625 24.9375 -21.769531 24.9375 -21.28125 C 24.9375 -21.1875 24.882812 -21.054688 24.78125 -20.890625 C 24.6875 -20.734375 24.535156 -20.554688 24.328125 -20.359375 C 24.117188 -20.171875 23.820312 -20.007812 23.4375 -19.875 C 23.050781 -19.738281 22.601562 -19.671875 22.09375 -19.671875 C 21.894531 -19.671875 21.671875 -20.09375 21.421875 -20.9375 C 21.171875 -21.789062 20.921875 -22.773438 20.671875 -23.890625 C 20.421875 -25.003906 20.242188 -25.707031 20.140625 -26 C 19.171875 -26 17.554688 -25.992188 15.296875 -25.984375 C 13.046875 -25.984375 11.253906 -25.984375 9.921875 -25.984375 C 9.722656 -25.984375 9.566406 -25.910156 9.453125 -25.765625 C 9.347656 -25.617188 9.285156 -25.46875 9.265625 -25.3125 C 9.253906 -25.164062 9.25 -24.96875 9.25 -24.71875 L 9.25 -17.234375 C 10.007812 -17.503906 10.953125 -17.742188 12.078125 -17.953125 C 13.210938 -18.160156 14.25 -18.265625 15.1875 -18.265625 C 15.988281 -18.265625 16.625 -18.0625 17.09375 -17.65625 C 17.570312 -17.257812 17.8125 -16.617188 17.8125 -15.734375 C 17.8125 -14.992188 17.554688 -14.375 17.046875 -13.875 C 16.535156 -13.375 15.9375 -13.125 15.25 -13.125 C 14.300781 -14.332031 12.941406 -14.9375 11.171875 -14.9375 C 10.648438 -14.9375 10.007812 -14.890625 9.25 -14.796875 L 9.25 -4.84375 C 9.25 -4.570312 9.253906 -4.359375 9.265625 -4.203125 C 9.285156 -4.054688 9.347656 -3.910156 9.453125 -3.765625 C 9.566406 -3.617188 9.722656 -3.546875 9.921875 -3.546875 C 11.359375 -3.546875 13.289062 -3.539062 15.71875 -3.53125 C 18.15625 -3.53125 19.890625 -3.53125 20.921875 -3.53125 C 21.054688 -3.84375 21.289062 -4.628906 21.625 -5.890625 C 21.957031 -7.160156 22.285156 -8.269531 22.609375 -9.21875 C 22.941406 -10.175781 23.234375 -10.65625 23.484375 -10.65625 C 23.984375 -10.65625 24.425781 -10.585938 24.8125 -10.453125 C 25.207031 -10.316406 25.507812 -10.15625 25.71875 -9.96875 C 25.925781 -9.78125 26.078125 -9.601562 26.171875 -9.4375 C 26.273438 -9.269531 26.328125 -9.140625 26.328125 -9.046875 C 26.328125 -8.503906 25.960938 -6.875 25.234375 -4.15625 C 24.515625 -1.4375 24.03125 0.0195312 23.78125 0.21875 C 21.332031 0.0703125 17.707031 0 12.90625 0 C 8.71875 0 5.160156 0.0703125 2.234375 0.21875 C 1.878906 0.0078125 1.613281 -0.410156 1.4375 -1.046875 C 1.269531 -1.679688 1.1875 -2.335938 1.1875 -3.015625 C 1.1875 -3.328125 1.40625 -3.5625 1.84375 -3.71875 C 2.28125 -3.882812 2.800781 -3.96875 3.40625 -3.96875 C 3.925781 -3.96875 4.265625 -4.078125 4.421875 -4.296875 C 4.578125 -4.515625 4.65625 -4.820312 4.65625 -5.21875 L 4.65625 -24.375 C 4.65625 -24.769531 4.578125 -25.078125 4.421875 -25.296875 C 4.265625 -25.515625 3.925781 -25.625 3.40625 -25.625 C 1.925781 -25.625 1.1875 -25.96875 1.1875 -26.65625 C 1.1875 -27.300781 1.269531 -27.9375 1.4375 -28.5625 C 1.613281 -29.195312 1.878906 -29.613281 2.234375 -29.8125 Z M 2.234375 -29.8125 "/></g></g></g><g fill="#333f63" fill-opacity="1"><g transform="translate(386.775263, 42.864225)"><g><path d="M 4.84375 -5.21875 L 4.84375 -24.375 C 4.84375 -24.769531 4.757812 -25.078125 4.59375 -25.296875 C 4.4375 -25.515625 4.101562 -25.625 3.59375 -25.625 C 2.113281 -25.625 1.375 -25.96875 1.375 -26.65625 C 1.375 -27.300781 1.457031 -27.9375 1.625 -28.5625 C 1.800781 -29.195312 2.066406 -29.613281 2.421875 -29.8125 C 4.160156 -29.644531 6.59375 -29.5625 9.71875 -29.5625 C 10.8125 -29.5625 12.179688 -29.613281 13.828125 -29.71875 C 15.484375 -29.820312 16.566406 -29.875 17.078125 -29.875 C 18.503906 -29.875 19.816406 -29.703125 21.015625 -29.359375 C 22.222656 -29.015625 23.25 -28.546875 24.09375 -27.953125 C 24.945312 -27.367188 25.664062 -26.679688 26.25 -25.890625 C 26.84375 -25.097656 27.28125 -24.257812 27.5625 -23.375 C 27.84375 -22.5 27.984375 -21.59375 27.984375 -20.65625 C 27.984375 -19.488281 27.75 -18.367188 27.28125 -17.296875 C 26.8125 -16.234375 26.132812 -15.269531 25.25 -14.40625 C 24.375 -13.550781 23.226562 -12.863281 21.8125 -12.34375 C 20.40625 -11.832031 18.828125 -11.578125 17.078125 -11.578125 L 9.421875 -11.578125 L 9.421875 -5.25 C 9.421875 -5.050781 9.429688 -4.894531 9.453125 -4.78125 C 9.472656 -4.675781 9.519531 -4.550781 9.59375 -4.40625 C 9.664062 -4.257812 9.789062 -4.148438 9.96875 -4.078125 C 10.15625 -4.003906 10.394531 -3.96875 10.6875 -3.96875 C 11.300781 -3.96875 11.820312 -3.882812 12.25 -3.71875 C 12.6875 -3.5625 12.90625 -3.328125 12.90625 -3.015625 C 12.90625 -2.328125 12.835938 -1.664062 12.703125 -1.03125 C 12.566406 -0.40625 12.351562 0.0078125 12.0625 0.21875 C 10.164062 0.0703125 8.53125 0 7.15625 0 C 5.863281 0 4.285156 0.0703125 2.421875 0.21875 C 2.066406 0.0078125 1.800781 -0.410156 1.625 -1.046875 C 1.457031 -1.679688 1.375 -2.335938 1.375 -3.015625 C 1.375 -3.328125 1.585938 -3.5625 2.015625 -3.71875 C 2.453125 -3.882812 2.976562 -3.96875 3.59375 -3.96875 C 4.101562 -3.96875 4.4375 -4.078125 4.59375 -4.296875 C 4.757812 -4.515625 4.84375 -4.820312 4.84375 -5.21875 Z M 9.421875 -14.9375 L 17.078125 -14.9375 C 19.046875 -14.9375 20.59375 -15.488281 21.71875 -16.59375 C 22.84375 -17.695312 23.40625 -19.003906 23.40625 -20.515625 C 23.40625 -22.054688 22.851562 -23.390625 21.75 -24.515625 C 20.644531 -25.648438 19.085938 -26.21875 17.078125 -26.21875 L 9.421875 -26.21875 Z M 9.421875 -14.9375 "/></g></g></g><g fill="#333f63" fill-opacity="1"><g transform="translate(419.27241, 42.864225)"><g><path d="M 21.59375 -0.328125 C 19.945312 0.242188 18.148438 0.53125 16.203125 0.53125 C 14.265625 0.53125 12.46875 0.242188 10.8125 -0.328125 C 9.15625 -0.898438 7.738281 -1.675781 6.5625 -2.65625 C 5.394531 -3.644531 4.394531 -4.796875 3.5625 -6.109375 C 2.738281 -7.421875 2.125 -8.8125 1.71875 -10.28125 C 1.320312 -11.757812 1.125 -13.269531 1.125 -14.8125 C 1.125 -16.363281 1.320312 -17.867188 1.71875 -19.328125 C 2.125 -20.785156 2.738281 -22.160156 3.5625 -23.453125 C 4.382812 -24.742188 5.378906 -25.875 6.546875 -26.84375 C 7.722656 -27.820312 9.140625 -28.59375 10.796875 -29.15625 C 12.460938 -29.71875 14.265625 -30 16.203125 -30 C 18.148438 -30 19.953125 -29.71875 21.609375 -29.15625 C 23.265625 -28.59375 24.675781 -27.820312 25.84375 -26.84375 C 27.019531 -25.875 28.019531 -24.742188 28.84375 -23.453125 C 29.675781 -22.160156 30.289062 -20.785156 30.6875 -19.328125 C 31.082031 -17.867188 31.28125 -16.363281 31.28125 -14.8125 C 31.28125 -13.269531 31.082031 -11.757812 30.6875 -10.28125 C 30.289062 -8.8125 29.675781 -7.421875 28.84375 -6.109375 C 28.007812 -4.796875 27.003906 -3.644531 25.828125 -2.65625 C 24.660156 -1.675781 23.25 -0.898438 21.59375 -0.328125 Z M 12.609375 -3.6875 C 13.710938 -3.25 14.910156 -3.03125 16.203125 -3.03125 C 17.503906 -3.03125 18.703125 -3.25 19.796875 -3.6875 C 20.890625 -4.132812 21.828125 -4.734375 22.609375 -5.484375 C 23.390625 -6.234375 24.054688 -7.101562 24.609375 -8.09375 C 25.160156 -9.09375 25.566406 -10.148438 25.828125 -11.265625 C 26.085938 -12.390625 26.21875 -13.546875 26.21875 -14.734375 C 26.21875 -16.234375 26.003906 -17.671875 25.578125 -19.046875 C 25.148438 -20.421875 24.53125 -21.660156 23.71875 -22.765625 C 22.914062 -23.878906 21.863281 -24.769531 20.5625 -25.4375 C 19.257812 -26.101562 17.804688 -26.4375 16.203125 -26.4375 C 14.609375 -26.4375 13.15625 -26.101562 11.84375 -25.4375 C 10.539062 -24.769531 9.488281 -23.878906 8.6875 -22.765625 C 7.882812 -21.660156 7.265625 -20.421875 6.828125 -19.046875 C 6.398438 -17.671875 6.1875 -16.234375 6.1875 -14.734375 C 6.1875 -13.546875 6.316406 -12.390625 6.578125 -11.265625 C 6.847656 -10.148438 7.253906 -9.09375 7.796875 -8.09375 C 8.347656 -7.101562 9.015625 -6.234375 9.796875 -5.484375 C 10.578125 -4.734375 11.515625 -4.132812 12.609375 -3.6875 Z M 12.609375 -3.6875 "/></g></g></g><g fill="#333f63" fill-opacity="1"><g transform="translate(455.181603, 42.864225)"><g><path d="M 9.25 -16.71875 L 17.5 -16.71875 C 19.144531 -16.71875 20.441406 -17.171875 21.390625 -18.078125 C 22.347656 -18.992188 22.828125 -20.066406 22.828125 -21.296875 C 22.828125 -22.640625 22.328125 -23.796875 21.328125 -24.765625 C 20.335938 -25.734375 18.925781 -26.21875 17.09375 -26.21875 L 9.25 -26.21875 Z M 2.234375 -29.8125 C 3.984375 -29.644531 6.421875 -29.5625 9.546875 -29.5625 C 10.671875 -29.5625 12.070312 -29.613281 13.75 -29.71875 C 15.4375 -29.820312 16.550781 -29.875 17.09375 -29.875 C 18.757812 -29.875 20.265625 -29.628906 21.609375 -29.140625 C 22.953125 -28.660156 24.035156 -28.019531 24.859375 -27.21875 C 25.691406 -26.425781 26.320312 -25.53125 26.75 -24.53125 C 27.1875 -23.539062 27.40625 -22.507812 27.40625 -21.4375 C 27.40625 -20.769531 27.300781 -20.09375 27.09375 -19.40625 C 26.894531 -18.726562 26.578125 -18.070312 26.140625 -17.4375 C 25.703125 -16.8125 25.179688 -16.25 24.578125 -15.75 C 23.984375 -15.257812 23.253906 -14.851562 22.390625 -14.53125 C 21.523438 -14.207031 20.59375 -14.023438 19.59375 -13.984375 C 20.601562 -13.648438 21.460938 -13.070312 22.171875 -12.25 C 22.890625 -11.425781 23.429688 -10.546875 23.796875 -9.609375 C 24.160156 -8.679688 24.492188 -7.769531 24.796875 -6.875 C 25.109375 -5.976562 25.484375 -5.234375 25.921875 -4.640625 C 26.359375 -4.054688 26.894531 -3.765625 27.53125 -3.765625 C 29.40625 -3.765625 30.34375 -3.59375 30.34375 -3.25 L 30.34375 -2.515625 C 30.34375 -2.066406 30.3125 -1.703125 30.25 -1.421875 C 30.1875 -1.148438 30.035156 -0.859375 29.796875 -0.546875 C 29.554688 -0.234375 29.164062 -0.00390625 28.625 0.140625 C 28.082031 0.296875 27.378906 0.375 26.515625 0.375 C 25.671875 0.375 24.925781 0.234375 24.28125 -0.046875 C 23.644531 -0.328125 23.117188 -0.707031 22.703125 -1.1875 C 22.285156 -1.675781 21.914062 -2.238281 21.59375 -2.875 C 21.28125 -3.507812 20.992188 -4.179688 20.734375 -4.890625 C 20.484375 -5.609375 20.226562 -6.332031 19.96875 -7.0625 C 19.707031 -7.789062 19.394531 -8.5 19.03125 -9.1875 C 18.664062 -9.882812 18.25 -10.515625 17.78125 -11.078125 C 17.3125 -11.640625 16.707031 -12.125 15.96875 -12.53125 C 15.238281 -12.945312 14.398438 -13.226562 13.453125 -13.375 L 9.25 -13.375 L 9.25 -5.25 C 9.25 -5.050781 9.253906 -4.894531 9.265625 -4.78125 C 9.285156 -4.675781 9.332031 -4.550781 9.40625 -4.40625 C 9.476562 -4.257812 9.609375 -4.148438 9.796875 -4.078125 C 9.984375 -4.003906 10.222656 -3.96875 10.515625 -3.96875 C 11.117188 -3.96875 11.640625 -3.882812 12.078125 -3.71875 C 12.515625 -3.5625 12.734375 -3.328125 12.734375 -3.015625 C 12.734375 -1.253906 12.515625 -0.175781 12.078125 0.21875 C 10.097656 0.0703125 8.398438 0 6.984375 0 C 5.765625 0 4.179688 0.0703125 2.234375 0.21875 C 1.878906 0.0078125 1.613281 -0.410156 1.4375 -1.046875 C 1.269531 -1.679688 1.1875 -2.335938 1.1875 -3.015625 C 1.1875 -3.328125 1.40625 -3.5625 1.84375 -3.71875 C 2.28125 -3.882812 2.800781 -3.96875 3.40625 -3.96875 C 3.925781 -3.96875 4.265625 -4.078125 4.421875 -4.296875 C 4.578125 -4.515625 4.65625 -4.820312 4.65625 -5.21875 L 4.65625 -24.375 C 4.65625 -24.769531 4.578125 -25.078125 4.421875 -25.296875 C 4.265625 -25.515625 3.925781 -25.625 3.40625 -25.625 C 1.925781 -25.625 1.1875 -25.96875 1.1875 -26.65625 C 1.1875 -27.300781 1.269531 -27.9375 1.4375 -28.5625 C 1.613281 -29.195312 1.878906 -29.613281 2.234375 -29.8125 Z M 2.234375 -29.8125 "/></g></g></g><g fill="#333f63" fill-opacity="1"><g transform="translate(489.860866, 42.864225)"><g><path d="M 10.84375 -5.21875 L 10.84375 -25.703125 C 10.84375 -25.847656 10.835938 -25.960938 10.828125 -26.046875 C 10.816406 -26.128906 10.773438 -26.207031 10.703125 -26.28125 C 10.628906 -26.363281 10.519531 -26.40625 10.375 -26.40625 C 9.75 -26.40625 8.84375 -26.40625 7.65625 -26.40625 C 6.476562 -26.414062 5.632812 -26.421875 5.125 -26.421875 C 5 -26.160156 4.800781 -25.503906 4.53125 -24.453125 C 4.257812 -23.398438 3.984375 -22.472656 3.703125 -21.671875 C 3.429688 -20.878906 3.179688 -20.484375 2.953125 -20.484375 C 2.453125 -20.484375 2.003906 -20.550781 1.609375 -20.6875 C 1.222656 -20.820312 0.925781 -20.984375 0.71875 -21.171875 C 0.519531 -21.367188 0.367188 -21.546875 0.265625 -21.703125 C 0.171875 -21.867188 0.125 -22 0.125 -22.09375 C 0.125 -22.539062 0.367188 -23.898438 0.859375 -26.171875 C 1.347656 -28.453125 1.679688 -29.6875 1.859375 -29.875 C 1.898438 -29.875 1.941406 -29.867188 1.984375 -29.859375 C 2.023438 -29.859375 2.066406 -29.859375 2.109375 -29.859375 C 6.035156 -29.523438 9.71875 -29.359375 13.15625 -29.359375 C 16.582031 -29.359375 20.257812 -29.523438 24.1875 -29.859375 C 24.21875 -29.859375 24.253906 -29.859375 24.296875 -29.859375 C 24.335938 -29.867188 24.378906 -29.875 24.421875 -29.875 C 24.609375 -29.6875 24.945312 -28.453125 25.4375 -26.171875 C 25.925781 -23.898438 26.171875 -22.539062 26.171875 -22.09375 C 26.171875 -22 26.117188 -21.867188 26.015625 -21.703125 C 25.910156 -21.546875 25.753906 -21.367188 25.546875 -21.171875 C 25.347656 -20.984375 25.050781 -20.820312 24.65625 -20.6875 C 24.269531 -20.550781 23.828125 -20.484375 23.328125 -20.484375 C 23.097656 -20.484375 22.84375 -20.878906 22.5625 -21.671875 C 22.289062 -22.472656 22.019531 -23.398438 21.75 -24.453125 C 21.476562 -25.503906 21.285156 -26.160156 21.171875 -26.421875 C 20.648438 -26.421875 19.796875 -26.414062 18.609375 -26.40625 C 17.429688 -26.40625 16.53125 -26.40625 15.90625 -26.40625 C 15.695312 -26.40625 15.566406 -26.34375 15.515625 -26.21875 C 15.460938 -26.101562 15.4375 -25.929688 15.4375 -25.703125 L 15.4375 -5.25 C 15.4375 -5.050781 15.445312 -4.894531 15.46875 -4.78125 C 15.488281 -4.675781 15.53125 -4.550781 15.59375 -4.40625 C 15.664062 -4.257812 15.796875 -4.148438 15.984375 -4.078125 C 16.171875 -4.003906 16.410156 -3.96875 16.703125 -3.96875 C 17.304688 -3.96875 17.828125 -3.882812 18.265625 -3.71875 C 18.703125 -3.5625 18.921875 -3.328125 18.921875 -3.015625 C 18.921875 -1.253906 18.703125 -0.175781 18.265625 0.21875 C 16.285156 0.0703125 14.585938 0 13.171875 0 C 11.785156 0 10.070312 0.0703125 8.03125 0.21875 C 7.59375 -0.175781 7.375 -1.253906 7.375 -3.015625 C 7.375 -3.328125 7.59375 -3.5625 8.03125 -3.71875 C 8.46875 -3.882812 8.988281 -3.96875 9.59375 -3.96875 C 10.113281 -3.96875 10.453125 -4.078125 10.609375 -4.296875 C 10.765625 -4.515625 10.84375 -4.820312 10.84375 -5.21875 Z M 10.84375 -5.21875 "/></g></g></g><g fill="#333f63" fill-opacity="1"><g transform="translate(519.660205, 42.864225)"><g><path d="M 4.9375 0.21875 L 3.015625 0.21875 C 2.148438 -3.519531 1.71875 -6.34375 1.71875 -8.25 C 1.71875 -8.550781 2.015625 -8.800781 2.609375 -9 C 3.210938 -9.195312 3.835938 -9.296875 4.484375 -9.296875 C 4.742188 -9.296875 4.957031 -9.28125 5.125 -9.25 C 5.539062 -8.175781 6.125 -7.222656 6.875 -6.390625 C 7.632812 -5.554688 8.457031 -4.898438 9.34375 -4.421875 C 10.238281 -3.941406 11.132812 -3.578125 12.03125 -3.328125 C 12.925781 -3.085938 13.789062 -2.96875 14.625 -2.96875 C 16.144531 -2.96875 17.382812 -3.304688 18.34375 -3.984375 C 19.300781 -4.671875 19.78125 -5.675781 19.78125 -7 C 19.78125 -7.882812 19.5625 -8.660156 19.125 -9.328125 C 18.695312 -9.992188 18.125 -10.535156 17.40625 -10.953125 C 16.6875 -11.367188 15.859375 -11.734375 14.921875 -12.046875 C 13.992188 -12.367188 13.007812 -12.671875 11.96875 -12.953125 C 10.9375 -13.234375 9.898438 -13.523438 8.859375 -13.828125 C 7.816406 -14.128906 6.828125 -14.507812 5.890625 -14.96875 C 4.960938 -15.4375 4.140625 -15.976562 3.421875 -16.59375 C 2.703125 -17.207031 2.125 -18.003906 1.6875 -18.984375 C 1.257812 -19.960938 1.046875 -21.085938 1.046875 -22.359375 C 1.046875 -23.984375 1.546875 -25.382812 2.546875 -26.5625 C 3.554688 -27.75 4.828125 -28.617188 6.359375 -29.171875 C 7.890625 -29.722656 9.550781 -30 11.34375 -30 C 14.144531 -30 16.523438 -29.296875 18.484375 -27.890625 C 18.617188 -28.148438 18.722656 -28.40625 18.796875 -28.65625 C 18.867188 -28.914062 18.90625 -29.085938 18.90625 -29.171875 C 18.90625 -29.265625 18.957031 -29.351562 19.0625 -29.4375 C 19.175781 -29.519531 19.316406 -29.5625 19.484375 -29.5625 C 19.660156 -29.570312 19.976562 -29.578125 20.4375 -29.578125 C 20.832031 -29.578125 21.457031 -29.546875 22.3125 -29.484375 C 23.144531 -25.785156 23.5625 -23.160156 23.5625 -21.609375 C 23.5625 -21.390625 23.210938 -21.210938 22.515625 -21.078125 C 21.828125 -20.953125 21.148438 -20.890625 20.484375 -20.890625 L 20 -20.890625 C 19.507812 -22.617188 18.535156 -24.039062 17.078125 -25.15625 C 15.617188 -26.28125 13.785156 -26.84375 11.578125 -26.84375 C 9.710938 -26.84375 8.3125 -26.46875 7.375 -25.71875 C 6.4375 -24.976562 5.96875 -23.96875 5.96875 -22.6875 C 5.96875 -21.9375 6.179688 -21.269531 6.609375 -20.6875 C 7.046875 -20.101562 7.625 -19.625 8.34375 -19.25 C 9.070312 -18.875 9.90625 -18.535156 10.84375 -18.234375 C 11.789062 -17.929688 12.785156 -17.632812 13.828125 -17.34375 C 14.867188 -17.050781 15.910156 -16.738281 16.953125 -16.40625 C 18.003906 -16.070312 19 -15.660156 19.9375 -15.171875 C 20.875 -14.679688 21.707031 -14.117188 22.4375 -13.484375 C 23.164062 -12.847656 23.742188 -12.035156 24.171875 -11.046875 C 24.597656 -10.066406 24.8125 -8.957031 24.8125 -7.71875 C 24.8125 -6.300781 24.535156 -5.046875 23.984375 -3.953125 C 23.429688 -2.867188 22.671875 -2.007812 21.703125 -1.375 C 20.742188 -0.738281 19.671875 -0.265625 18.484375 0.046875 C 17.304688 0.367188 16.035156 0.53125 14.671875 0.53125 C 13.222656 0.53125 11.78125 0.285156 10.34375 -0.203125 C 8.90625 -0.691406 7.609375 -1.367188 6.453125 -2.234375 L 6.109375 -0.28125 C 6.078125 -0.15625 6.039062 -0.0625 6 0 C 5.957031 0.0507812 5.847656 0.0976562 5.671875 0.140625 C 5.503906 0.191406 5.257812 0.21875 4.9375 0.21875 Z M 4.9375 0.21875 "/></g></g></g></g></g></svg>