<svg xmlns="http://www.w3.org/2000/svg" xmlns:xlink="http://www.w3.org/1999/xlink" width="1080" zoomAndPan="magnify" viewBox="0 0 810 1439.999935" height="1920" preserveAspectRatio="xMidYMid meet" version="1.0"><defs><g/><clipPath id="baf7151df6"><rect x="0" width="810" y="0" height="1440"/></clipPath><clipPath id="a0a72cbb84"><path d="M 205 565.097656 L 295 565.097656 L 295 629 L 205 629 Z M 205 565.097656 " clip-rule="nonzero"/></clipPath><clipPath id="45c2286ef6"><path d="M 280 565.097656 L 344 565.097656 L 344 629 L 280 629 Z M 280 565.097656 " clip-rule="nonzero"/></clipPath><clipPath id="952b0856fc"><path d="M 352 565.097656 L 393 565.097656 L 393 629 L 352 629 Z M 352 565.097656 " clip-rule="nonzero"/></clipPath><clipPath id="815a304f0e"><path d="M 420 565.097656 L 460 565.097656 L 460 629 L 420 629 Z M 420 565.097656 " clip-rule="nonzero"/></clipPath><clipPath id="9c1b810257"><path d="M 466 565.097656 L 533 565.097656 L 533 629 L 466 629 Z M 466 565.097656 " clip-rule="nonzero"/></clipPath><clipPath id="1651bc5323"><path d="M 516 565.097656 L 605 565.097656 L 605 629 L 516 629 Z M 516 565.097656 " clip-rule="nonzero"/></clipPath><clipPath id="54d7c79d1d"><path d="M 192.441406 865 L 617.6875 865 L 617.6875 874.847656 L 192.441406 874.847656 Z M 192.441406 865 " clip-rule="nonzero"/></clipPath></defs><rect x="-81" width="972" fill="#ffffff" y="-143.999994" height="1727.999922" fill-opacity="1"/><rect x="-81" width="972" fill="#ffffff" y="-143.999994" height="1727.999922" fill-opacity="1"/><g transform="matrix(1, 0, 0, 1, 0, -0.000000000000101068)"><g clip-path="url(#baf7151df6)"><path fill="#e6e6e6" d="M 0 0 L 810 0 L 810 1439.648438 L 0 1439.648438 Z M 0 0 " fill-opacity="1" fill-rule="nonzero"/></g></g><path stroke-linecap="butt" transform="matrix(0.75, 0, 0, 0.75, 0.0000182812, -0.00000283386)" fill="none" stroke-linejoin="miter" d="M -0.000024375 0.00000377848 L 1080.000069 0.00000377848 L 1080.000069 1920.00017 L -0.000024375 1920.00017 Z M -0.000024375 0.00000377848 " stroke="#333f63" stroke-width="50" stroke-opacity="1" stroke-miterlimit="4"/><g clip-path="url(#a0a72cbb84)"><path fill="#333f63" d="M 236.738281 628.203125 L 294.171875 565.375 L 275.472656 565.375 L 205.492188 628.203125 Z M 236.738281 628.203125 " fill-opacity="1" fill-rule="evenodd"/></g><g clip-path="url(#45c2286ef6)"><path fill="#333f63" d="M 324.878906 565.375 L 280.980469 628.203125 L 311.605469 628.203125 L 343.796875 565.375 Z M 324.878906 565.375 " fill-opacity="1" fill-rule="evenodd"/></g><g clip-path="url(#952b0856fc)"><path fill="#333f63" d="M 371.859375 565.375 L 352.917969 628.203125 L 385.789062 628.203125 L 392.210938 565.375 Z M 371.859375 565.375 " fill-opacity="1" fill-rule="evenodd"/></g><g clip-path="url(#815a304f0e)"><path fill="#333f63" d="M 420.820312 565.375 L 426.105469 628.203125 L 459.199219 628.203125 L 439.582031 565.375 Z M 420.820312 565.375 " fill-opacity="1" fill-rule="evenodd"/></g><g clip-path="url(#9c1b810257)"><path fill="#333f63" d="M 466.550781 565.375 L 500.371094 628.203125 L 532.238281 628.203125 L 486.105469 565.375 Z M 466.550781 565.375 " fill-opacity="1" fill-rule="evenodd"/></g><g clip-path="url(#1651bc5323)"><path fill="#333f63" d="M 516.375 565.375 L 574.410156 628.203125 L 604.914062 628.203125 L 534.527344 565.375 Z M 516.375 565.375 " fill-opacity="1" fill-rule="evenodd"/></g><path fill="#333f63" d="M 607.953125 631.808594 L 576.039062 631.78125 L 578.078125 640.902344 C 580.070312 642.347656 582.054688 643.5625 584.039062 644.523438 C 586.148438 645.542969 588.25 646.269531 590.335938 646.660156 C 590.363281 646.667969 590.390625 646.671875 590.414062 646.679688 C 591.332031 646.847656 592.246094 646.949219 593.160156 646.984375 C 598.054688 647.175781 602.984375 645.402344 607.953125 641.117188 Z M 607.953125 631.808594 " fill-opacity="1" fill-rule="evenodd"/><path fill="#333f63" d="M 533.960938 641.058594 L 534.035156 631.742188 L 501.355469 631.710938 L 502.875 640.976562 C 508.050781 645.050781 513.234375 647.117188 518.421875 647.117188 C 523.527344 647.117188 528.707031 645.113281 533.960938 641.058594 Z M 533.960938 641.058594 " fill-opacity="1" fill-rule="evenodd"/><path fill="#333f63" d="M 460.902344 641.117188 L 460.003906 631.671875 L 426.238281 631.640625 L 426.160156 641.015625 C 431.84375 644.933594 437.949219 647.039062 444.03125 647.039062 C 449.78125 647.039062 455.535156 645.148438 460.902344 641.117188 Z M 460.902344 641.117188 " fill-opacity="1" fill-rule="evenodd"/><path fill="#333f63" d="M 385.359375 641.0625 L 385.589844 631.601562 L 352.578125 631.570312 L 353.695312 640.96875 C 359.039062 644.878906 364.339844 647.023438 369.589844 647.121094 C 374.8125 647.214844 380.066406 645.289062 385.359375 641.0625 Z M 385.359375 641.0625 " fill-opacity="1" fill-rule="evenodd"/><path fill="#333f63" d="M 311.8125 641.15625 L 311.09375 631.53125 L 279.292969 631.503906 L 278.03125 641.042969 C 284.953125 645.421875 291.164062 647.367188 296.765625 647.234375 C 302.269531 647.109375 307.253906 644.960938 311.8125 641.15625 Z M 311.8125 641.15625 " fill-opacity="1" fill-rule="evenodd"/><path fill="#333f63" d="M 236.023438 640.882812 L 235.859375 631.460938 L 208.066406 631.433594 L 202.894531 631.433594 L 202.894531 641.058594 C 207.402344 644.433594 212.386719 646.082031 217.835938 646.058594 C 218.445312 646.058594 219.054688 646.035156 219.671875 645.992188 C 219.75 645.976562 219.824219 645.96875 219.902344 645.96875 C 222.492188 645.765625 225.191406 645.207031 227.988281 644.296875 C 230.582031 643.457031 233.257812 642.316406 236.023438 640.882812 Z M 236.023438 640.882812 " fill-opacity="1" fill-rule="evenodd"/><path fill="#333f63" d="M 237.535156 643.730469 C 234.601562 645.253906 231.75 646.46875 228.988281 647.367188 C 226.441406 648.191406 223.96875 648.753906 221.566406 649.042969 L 221.566406 651.019531 L 588.425781 651.019531 L 588.425781 649.546875 C 586.488281 649.070312 584.5625 648.355469 582.640625 647.425781 C 580.628906 646.453125 578.625 645.246094 576.621094 643.824219 C 569.804688 648.472656 562.960938 650.675781 556.089844 650.609375 C 549.242188 650.546875 542.429688 648.226562 535.640625 643.828125 C 529.894531 648.195312 524.152344 650.347656 518.421875 650.347656 C 512.632812 650.347656 506.921875 648.152344 501.285156 643.820312 C 494.175781 648.261719 487.40625 650.25 480.933594 650.128906 C 474.5 650.003906 468.417969 647.800781 462.628906 643.839844 C 456.726562 648.21875 450.386719 650.269531 444.03125 650.269531 C 437.371094 650.269531 430.714844 648.011719 424.546875 643.8125 C 418.011719 648.3125 411.890625 650.410156 405.726562 650.328125 C 399.601562 650.25 393.527344 648.011719 387.050781 643.839844 C 381.253906 648.378906 375.414062 650.445312 369.539062 650.339844 C 363.707031 650.230469 357.921875 647.972656 352.175781 643.851562 C 345.753906 648.46875 339.296875 650.632812 332.808594 650.550781 C 326.363281 650.476562 319.957031 648.179688 313.578125 643.875 C 308.546875 647.992188 303 650.3125 296.828125 650.453125 C 290.59375 650.597656 283.785156 648.503906 276.308594 643.773438 C 269.898438 647.941406 263.460938 650.140625 256.988281 650.203125 C 250.480469 650.265625 243.992188 648.167969 237.535156 643.730469 Z M 237.535156 643.730469 " fill-opacity="1" fill-rule="evenodd"/><path fill="#333f63" d="M 215.597656 654.25 L 594.394531 654.25 L 594.394531 663.878906 L 215.597656 663.878906 Z M 215.597656 654.25 " fill-opacity="1" fill-rule="evenodd"/><path fill="#333f63" d="M 588.425781 665.78125 L 221.566406 665.78125 L 221.566406 845.65625 L 457.265625 845.65625 L 457.265625 671.179688 C 457.265625 670.289062 457.992188 669.566406 458.882812 669.566406 L 559.886719 669.566406 C 560.777344 669.566406 561.5 670.289062 561.5 671.179688 L 561.5 845.65625 L 588.425781 845.65625 Z M 238.917969 679.0625 L 442.035156 679.0625 C 442.925781 679.0625 443.648438 679.789062 443.648438 680.679688 L 443.648438 829.359375 C 443.648438 830.25 442.925781 830.972656 442.035156 830.972656 L 238.917969 830.972656 C 238.027344 830.972656 237.304688 830.25 237.304688 829.359375 L 237.304688 680.679688 C 237.304688 679.789062 238.027344 679.0625 238.917969 679.0625 Z M 238.917969 679.0625 " fill-opacity="1" fill-rule="evenodd"/><path fill="#333f63" d="M 458.882812 848.136719 L 215.597656 848.136719 L 215.597656 864.082031 L 594.394531 864.082031 L 594.394531 848.136719 Z M 458.882812 848.136719 " fill-opacity="1" fill-rule="evenodd"/><g clip-path="url(#54d7c79d1d)"><path fill="#333f63" d="M 458.882812 865.910156 L 192.441406 865.910156 L 192.441406 874.625 L 617.550781 874.625 L 617.550781 865.910156 Z M 458.882812 865.910156 " fill-opacity="1" fill-rule="evenodd"/></g><path fill="#333f63" d="M 246.59375 745.453125 L 246.59375 687.480469 C 246.59375 686.585938 247.316406 685.863281 248.207031 685.863281 L 432.746094 685.863281 C 433.636719 685.863281 434.363281 686.585938 434.363281 687.480469 L 434.363281 822.558594 C 434.363281 823.453125 433.636719 824.175781 432.746094 824.175781 L 248.207031 824.175781 C 247.316406 824.175781 246.59375 823.453125 246.59375 822.558594 Z M 440.417969 827.742188 L 440.417969 682.296875 L 240.535156 682.296875 L 240.535156 827.742188 Z M 440.417969 827.742188 " fill-opacity="1" fill-rule="evenodd"/><path fill="#333f63" d="M 460.496094 672.796875 L 460.496094 845.65625 L 558.269531 845.65625 L 558.269531 672.796875 Z M 462.527344 676.5 C 462.527344 675.929688 462.988281 675.464844 463.558594 675.464844 L 508.222656 675.464844 C 508.792969 675.464844 509.257812 675.929688 509.257812 676.5 L 509.257812 738.035156 C 509.257812 738.605469 508.792969 739.066406 508.222656 739.070312 L 494.0625 739.070312 C 494.054688 739.070312 494.046875 739.066406 494.039062 739.066406 L 463.558594 739.066406 C 462.988281 739.066406 462.527344 738.605469 462.527344 738.035156 Z M 490.589844 740.472656 L 508.222656 740.476562 C 508.792969 740.476562 509.257812 740.9375 509.257812 741.507812 L 509.257812 803.042969 C 509.257812 803.613281 508.792969 804.078125 508.222656 804.078125 L 463.558594 804.078125 C 462.988281 804.078125 462.527344 803.613281 462.527344 803.042969 L 462.527344 741.507812 C 462.527344 740.9375 462.988281 740.472656 463.558594 740.472656 Z M 509.902344 803.042969 L 509.902344 741.507812 C 509.902344 740.9375 510.363281 740.476562 510.933594 740.472656 L 555.597656 740.472656 C 556.167969 740.472656 556.632812 740.9375 556.632812 741.507812 L 556.632812 762.363281 C 556.632812 762.367188 556.632812 762.375 556.632812 762.382812 L 556.632812 803.042969 C 556.632812 803.613281 556.167969 804.078125 555.597656 804.078125 L 530.292969 804.078125 C 530.285156 804.078125 530.277344 804.078125 530.265625 804.078125 L 510.933594 804.078125 C 510.363281 804.078125 509.902344 803.613281 509.902344 803.042969 Z M 509.902344 721.164062 L 509.902344 676.5 C 509.902344 675.929688 510.363281 675.464844 510.933594 675.464844 L 555.597656 675.464844 C 556.167969 675.464844 556.632812 675.929688 556.632812 676.5 L 556.632812 738.035156 C 556.632812 738.605469 556.167969 739.066406 555.597656 739.066406 L 520.449219 739.066406 C 520.441406 739.066406 520.429688 739.070312 520.421875 739.070312 L 510.933594 739.070312 C 510.363281 739.070312 509.902344 738.605469 509.902344 738.035156 Z M 509.902344 721.164062 " fill-opacity="1" fill-rule="evenodd"/><g fill="#333f63" fill-opacity="1"><g transform="translate(287.594436, 1269.095846)"><g><path d="M 8.75 0.390625 L 5.34375 0.390625 C 3.820312 -6.242188 3.0625 -11.25 3.0625 -14.625 C 3.0625 -15.164062 3.585938 -15.609375 4.640625 -15.953125 C 5.691406 -16.304688 6.796875 -16.484375 7.953125 -16.484375 C 8.421875 -16.484375 8.796875 -16.453125 9.078125 -16.390625 C 9.828125 -14.484375 10.867188 -12.789062 12.203125 -11.3125 C 13.535156 -9.84375 14.992188 -8.6875 16.578125 -7.84375 C 18.160156 -7 19.742188 -6.359375 21.328125 -5.921875 C 22.910156 -5.492188 24.4375 -5.28125 25.90625 -5.28125 C 28.601562 -5.28125 30.800781 -5.878906 32.5 -7.078125 C 34.195312 -8.285156 35.046875 -10.0625 35.046875 -12.40625 C 35.046875 -13.976562 34.664062 -15.351562 33.90625 -16.53125 C 33.144531 -17.71875 32.125 -18.679688 30.84375 -19.421875 C 29.570312 -20.160156 28.109375 -20.8125 26.453125 -21.375 C 24.804688 -21.9375 23.0625 -22.460938 21.21875 -22.953125 C 19.375 -23.453125 17.53125 -23.96875 15.6875 -24.5 C 13.851562 -25.039062 12.109375 -25.722656 10.453125 -26.546875 C 8.804688 -27.367188 7.34375 -28.320312 6.0625 -29.40625 C 4.789062 -30.5 3.769531 -31.910156 3 -33.640625 C 2.238281 -35.378906 1.859375 -37.375 1.859375 -39.625 C 1.859375 -42.507812 2.75 -45 4.53125 -47.09375 C 6.3125 -49.1875 8.554688 -50.71875 11.265625 -51.6875 C 13.972656 -52.664062 16.921875 -53.15625 20.109375 -53.15625 C 25.078125 -53.15625 29.296875 -51.914062 32.765625 -49.4375 C 33.003906 -49.90625 33.1875 -50.359375 33.3125 -50.796875 C 33.4375 -51.242188 33.5 -51.550781 33.5 -51.71875 C 33.5 -51.882812 33.597656 -52.035156 33.796875 -52.171875 C 34.003906 -52.316406 34.257812 -52.394531 34.5625 -52.40625 C 34.863281 -52.414062 35.414062 -52.421875 36.21875 -52.421875 C 36.914062 -52.421875 38.023438 -52.363281 39.546875 -52.25 C 41.023438 -45.707031 41.765625 -41.050781 41.765625 -38.28125 C 41.765625 -37.90625 41.148438 -37.597656 39.921875 -37.359375 C 38.691406 -37.128906 37.488281 -37.015625 36.3125 -37.015625 L 35.4375 -37.015625 C 34.570312 -40.085938 32.847656 -42.613281 30.265625 -44.59375 C 27.691406 -46.570312 24.445312 -47.5625 20.53125 -47.5625 C 17.226562 -47.5625 14.742188 -46.90625 13.078125 -45.59375 C 11.410156 -44.28125 10.578125 -42.488281 10.578125 -40.21875 C 10.578125 -38.882812 10.957031 -37.703125 11.71875 -36.671875 C 12.488281 -35.640625 13.515625 -34.789062 14.796875 -34.125 C 16.085938 -33.457031 17.566406 -32.851562 19.234375 -32.3125 C 20.898438 -31.769531 22.65625 -31.238281 24.5 -30.71875 C 26.351562 -30.207031 28.207031 -29.660156 30.0625 -29.078125 C 31.914062 -28.492188 33.671875 -27.765625 35.328125 -26.890625 C 36.992188 -26.023438 38.472656 -25.03125 39.765625 -23.90625 C 41.054688 -22.78125 42.082031 -21.34375 42.84375 -19.59375 C 43.601562 -17.851562 43.984375 -15.878906 43.984375 -13.671875 C 43.984375 -11.171875 43.488281 -8.953125 42.5 -7.015625 C 41.519531 -5.078125 40.179688 -3.546875 38.484375 -2.421875 C 36.785156 -1.296875 34.882812 -0.453125 32.78125 0.109375 C 30.6875 0.671875 28.429688 0.953125 26.015625 0.953125 C 23.441406 0.953125 20.878906 0.519531 18.328125 -0.34375 C 15.785156 -1.21875 13.484375 -2.425781 11.421875 -3.96875 L 10.828125 -0.5 C 10.785156 -0.28125 10.722656 -0.117188 10.640625 -0.015625 C 10.554688 0.0859375 10.359375 0.179688 10.046875 0.265625 C 9.742188 0.347656 9.3125 0.390625 8.75 0.390625 Z M 8.75 0.390625 "/></g></g></g><g fill="#333f63" fill-opacity="1"><g transform="translate(339.313773, 1269.095846)"><g><path d="M 3.96875 0.390625 C 3.34375 0.015625 2.875 -0.734375 2.5625 -1.859375 C 2.257812 -2.984375 2.109375 -4.144531 2.109375 -5.34375 C 2.109375 -5.90625 2.492188 -6.328125 3.265625 -6.609375 C 4.046875 -6.890625 4.972656 -7.03125 6.046875 -7.03125 C 6.960938 -7.03125 7.5625 -7.222656 7.84375 -7.609375 C 8.125 -7.992188 8.265625 -8.539062 8.265625 -9.25 L 8.265625 -43.203125 C 8.265625 -43.910156 8.125 -44.457031 7.84375 -44.84375 C 7.5625 -45.226562 6.960938 -45.421875 6.046875 -45.421875 C 3.421875 -45.421875 2.109375 -46.03125 2.109375 -47.25 C 2.109375 -48.394531 2.257812 -49.523438 2.5625 -50.640625 C 2.875 -51.753906 3.34375 -52.488281 3.96875 -52.84375 C 7.863281 -52.539062 10.664062 -52.390625 12.375 -52.390625 C 14.507812 -52.390625 17.40625 -52.53125 21.0625 -52.8125 C 21.570312 -52.4375 21.953125 -51.6875 22.203125 -50.5625 C 22.453125 -49.4375 22.578125 -48.265625 22.578125 -47.046875 C 22.578125 -46.484375 22.1875 -46.0625 21.40625 -45.78125 C 20.632812 -45.5 19.710938 -45.359375 18.640625 -45.359375 C 18.117188 -45.359375 17.691406 -45.289062 17.359375 -45.15625 C 17.035156 -45.03125 16.804688 -44.835938 16.671875 -44.578125 C 16.546875 -44.316406 16.46875 -44.085938 16.4375 -43.890625 C 16.40625 -43.691406 16.390625 -43.414062 16.390625 -43.0625 L 16.390625 -31.078125 C 16.390625 -30.585938 16.609375 -30.34375 17.046875 -30.34375 L 44.75 -30.34375 C 45.195312 -30.34375 45.421875 -30.585938 45.421875 -31.078125 L 45.421875 -43.140625 C 45.421875 -43.835938 45.28125 -44.378906 45 -44.765625 C 44.71875 -45.160156 44.117188 -45.359375 43.203125 -45.359375 C 42.128906 -45.359375 41.203125 -45.5 40.421875 -45.78125 C 39.648438 -46.0625 39.265625 -46.484375 39.265625 -47.046875 C 39.265625 -48.265625 39.414062 -49.4375 39.71875 -50.5625 C 40.03125 -51.6875 40.503906 -52.4375 41.140625 -52.8125 C 44.742188 -52.53125 47.539062 -52.390625 49.53125 -52.390625 C 51.664062 -52.390625 54.5625 -52.53125 58.21875 -52.8125 C 58.738281 -52.4375 59.117188 -51.6875 59.359375 -50.5625 C 59.609375 -49.4375 59.734375 -48.265625 59.734375 -47.046875 C 59.734375 -46.484375 59.34375 -46.0625 58.5625 -45.78125 C 57.789062 -45.5 56.867188 -45.359375 55.796875 -45.359375 C 55.273438 -45.359375 54.847656 -45.289062 54.515625 -45.15625 C 54.191406 -45.03125 53.96875 -44.835938 53.84375 -44.578125 C 53.71875 -44.316406 53.632812 -44.085938 53.59375 -43.890625 C 53.5625 -43.691406 53.546875 -43.414062 53.546875 -43.0625 L 53.546875 -9.3125 C 53.546875 -8.96875 53.5625 -8.691406 53.59375 -8.484375 C 53.632812 -8.285156 53.71875 -8.054688 53.84375 -7.796875 C 53.96875 -7.546875 54.191406 -7.351562 54.515625 -7.21875 C 54.847656 -7.09375 55.273438 -7.03125 55.796875 -7.03125 C 56.867188 -7.03125 57.789062 -6.890625 58.5625 -6.609375 C 59.34375 -6.328125 59.734375 -5.90625 59.734375 -5.34375 C 59.734375 -4.125 59.609375 -2.957031 59.359375 -1.84375 C 59.117188 -0.726562 58.738281 0.015625 58.21875 0.390625 C 54.863281 0.128906 51.96875 0 49.53125 0 C 47.238281 0 44.441406 0.128906 41.140625 0.390625 C 40.503906 0.015625 40.03125 -0.734375 39.71875 -1.859375 C 39.414062 -2.984375 39.265625 -4.144531 39.265625 -5.34375 C 39.265625 -5.90625 39.648438 -6.328125 40.421875 -6.609375 C 41.203125 -6.890625 42.128906 -7.03125 43.203125 -7.03125 C 44.117188 -7.03125 44.71875 -7.222656 45 -7.609375 C 45.28125 -7.992188 45.421875 -8.539062 45.421875 -9.25 L 45.421875 -24.125 C 45.421875 -24.613281 45.195312 -24.859375 44.75 -24.859375 L 17.046875 -24.859375 C 16.609375 -24.859375 16.390625 -24.613281 16.390625 -24.125 L 16.390625 -9.3125 C 16.390625 -8.96875 16.40625 -8.691406 16.4375 -8.484375 C 16.46875 -8.285156 16.546875 -8.054688 16.671875 -7.796875 C 16.804688 -7.546875 17.035156 -7.351562 17.359375 -7.21875 C 17.691406 -7.09375 18.117188 -7.03125 18.640625 -7.03125 C 19.710938 -7.03125 20.632812 -6.890625 21.40625 -6.609375 C 22.1875 -6.328125 22.578125 -5.90625 22.578125 -5.34375 C 22.578125 -4.125 22.453125 -2.957031 22.203125 -1.84375 C 21.953125 -0.726562 21.570312 0.015625 21.0625 0.390625 C 17.707031 0.128906 14.8125 0 12.375 0 C 10.082031 0 7.28125 0.128906 3.96875 0.390625 Z M 3.96875 0.390625 "/></g></g></g><g fill="#333f63" fill-opacity="1"><g transform="translate(407.345609, 1269.095846)"><g><path d="M 38.28125 -0.578125 C 35.351562 0.441406 32.164062 0.953125 28.71875 0.953125 C 25.28125 0.953125 22.09375 0.441406 19.15625 -0.578125 C 16.226562 -1.597656 13.726562 -2.976562 11.65625 -4.71875 C 9.582031 -6.46875 7.804688 -8.503906 6.328125 -10.828125 C 4.847656 -13.148438 3.753906 -15.617188 3.046875 -18.234375 C 2.347656 -20.847656 2 -23.523438 2 -26.265625 C 2 -29.003906 2.347656 -31.664062 3.046875 -34.25 C 3.753906 -36.84375 4.84375 -39.28125 6.3125 -41.5625 C 7.78125 -43.851562 9.550781 -45.859375 11.625 -47.578125 C 13.695312 -49.304688 16.203125 -50.664062 19.140625 -51.65625 C 22.085938 -52.65625 25.28125 -53.15625 28.71875 -53.15625 C 32.164062 -53.15625 35.359375 -52.65625 38.296875 -51.65625 C 41.242188 -50.664062 43.753906 -49.304688 45.828125 -47.578125 C 47.898438 -45.859375 49.664062 -43.851562 51.125 -41.5625 C 52.59375 -39.28125 53.675781 -36.84375 54.375 -34.25 C 55.082031 -31.664062 55.4375 -29.003906 55.4375 -26.265625 C 55.4375 -23.523438 55.082031 -20.847656 54.375 -18.234375 C 53.675781 -15.617188 52.585938 -13.148438 51.109375 -10.828125 C 49.640625 -8.503906 47.867188 -6.46875 45.796875 -4.71875 C 43.722656 -2.976562 41.21875 -1.597656 38.28125 -0.578125 Z M 22.359375 -6.546875 C 24.304688 -5.765625 26.425781 -5.375 28.71875 -5.375 C 31.019531 -5.375 33.140625 -5.765625 35.078125 -6.546875 C 37.023438 -7.335938 38.691406 -8.394531 40.078125 -9.71875 C 41.460938 -11.039062 42.640625 -12.585938 43.609375 -14.359375 C 44.585938 -16.128906 45.3125 -18.003906 45.78125 -19.984375 C 46.25 -21.960938 46.484375 -24.007812 46.484375 -26.125 C 46.484375 -28.769531 46.097656 -31.3125 45.328125 -33.75 C 44.566406 -36.1875 43.472656 -38.390625 42.046875 -40.359375 C 40.617188 -42.328125 38.75 -43.898438 36.4375 -45.078125 C 34.132812 -46.265625 31.5625 -46.859375 28.71875 -46.859375 C 25.882812 -46.859375 23.3125 -46.265625 21 -45.078125 C 18.695312 -43.898438 16.828125 -42.328125 15.390625 -40.359375 C 13.960938 -38.390625 12.867188 -36.1875 12.109375 -33.75 C 11.347656 -31.3125 10.96875 -28.769531 10.96875 -26.125 C 10.96875 -24.007812 11.203125 -21.960938 11.671875 -19.984375 C 12.140625 -18.003906 12.859375 -16.128906 13.828125 -14.359375 C 14.804688 -12.585938 15.984375 -11.039062 17.359375 -9.71875 C 18.742188 -8.394531 20.410156 -7.335938 22.359375 -6.546875 Z M 22.359375 -6.546875 "/></g></g></g><g fill="#333f63" fill-opacity="1"><g transform="translate(470.982914, 1269.095846)"><g><path d="M 8.578125 -9.25 L 8.578125 -43.203125 C 8.578125 -43.910156 8.4375 -44.457031 8.15625 -44.84375 C 7.875 -45.226562 7.273438 -45.421875 6.359375 -45.421875 C 3.734375 -45.421875 2.421875 -46.03125 2.421875 -47.25 C 2.421875 -48.394531 2.570312 -49.523438 2.875 -50.640625 C 3.1875 -51.753906 3.660156 -52.488281 4.296875 -52.84375 C 7.390625 -52.539062 11.703125 -52.390625 17.234375 -52.390625 C 19.171875 -52.390625 21.597656 -52.484375 24.515625 -52.671875 C 27.441406 -52.859375 29.359375 -52.953125 30.265625 -52.953125 C 32.796875 -52.953125 35.128906 -52.644531 37.265625 -52.03125 C 39.398438 -51.425781 41.21875 -50.597656 42.71875 -49.546875 C 44.21875 -48.503906 45.488281 -47.28125 46.53125 -45.875 C 47.570312 -44.46875 48.34375 -42.984375 48.84375 -41.421875 C 49.351562 -39.867188 49.609375 -38.257812 49.609375 -36.59375 C 49.609375 -34.53125 49.191406 -32.554688 48.359375 -30.671875 C 47.523438 -28.785156 46.328125 -27.082031 44.765625 -25.5625 C 43.210938 -24.039062 41.179688 -22.820312 38.671875 -21.90625 C 36.160156 -20.988281 33.359375 -20.53125 30.265625 -20.53125 L 16.703125 -20.53125 L 16.703125 -9.3125 C 16.703125 -8.96875 16.71875 -8.691406 16.75 -8.484375 C 16.789062 -8.285156 16.875 -8.054688 17 -7.796875 C 17.125 -7.546875 17.347656 -7.351562 17.671875 -7.21875 C 18.003906 -7.09375 18.429688 -7.03125 18.953125 -7.03125 C 20.023438 -7.03125 20.945312 -6.890625 21.71875 -6.609375 C 22.5 -6.328125 22.890625 -5.90625 22.890625 -5.34375 C 22.890625 -4.125 22.765625 -2.957031 22.515625 -1.84375 C 22.273438 -0.726562 21.894531 0.015625 21.375 0.390625 C 18.019531 0.128906 15.125 0 12.6875 0 C 10.394531 0 7.597656 0.128906 4.296875 0.390625 C 3.660156 0.015625 3.1875 -0.734375 2.875 -1.859375 C 2.570312 -2.984375 2.421875 -4.144531 2.421875 -5.34375 C 2.421875 -5.90625 2.804688 -6.328125 3.578125 -6.609375 C 4.359375 -6.890625 5.285156 -7.03125 6.359375 -7.03125 C 7.273438 -7.03125 7.875 -7.222656 8.15625 -7.609375 C 8.4375 -7.992188 8.578125 -8.539062 8.578125 -9.25 Z M 16.703125 -26.46875 L 30.265625 -26.46875 C 33.765625 -26.46875 36.507812 -27.445312 38.5 -29.40625 C 40.488281 -31.363281 41.484375 -33.679688 41.484375 -36.359375 C 41.484375 -39.097656 40.503906 -41.46875 38.546875 -43.46875 C 36.585938 -45.476562 33.828125 -46.484375 30.265625 -46.484375 L 16.703125 -46.484375 Z M 16.703125 -26.46875 "/></g></g></g></svg>